<?xml version="1.0" encoding="utf-8"?>
<!-- Generator: Adobe Illustrator 24.1.2, SVG Export Plug-In . SVG Version: 6.00 Build 0)  -->
<svg version="1.1" xmlns="http://www.w3.org/2000/svg" xmlns:xlink="http://www.w3.org/1999/xlink" x="0px" y="0px"
	 viewBox="0 0 850.39 850.39" style="enable-background:new 0 0 850.39 850.39;" xml:space="preserve">
<style type="text/css">
	.st0{fill:#31572C;}
	.st1{fill:#29371C;}
</style>
<g id="background">
</g>
<g id="image">
	<g>
		<g>
			<g>
				<path class="st0" d="M338.08,479.71c-6.09,0-11.7-0.97-16.83-2.92c-5.13-1.94-9.57-4.71-13.31-8.31
					c-3.74-3.59-6.65-7.81-8.75-12.65c-2.09-4.84-3.13-10.16-3.13-15.95c0-5.79,1.04-11.11,3.13-15.95
					c2.09-4.84,5.04-9.06,8.85-12.65c3.81-3.59,8.29-6.36,13.42-8.3c5.13-1.94,10.78-2.92,16.94-2.92c6.82,0,12.96,1.14,18.43,3.41
					c5.46,2.27,10.06,5.57,13.8,9.9l-11.33,10.56c-2.86-3.01-5.94-5.22-9.24-6.65s-6.93-2.15-10.89-2.15
					c-3.67,0-7.04,0.6-10.12,1.81s-5.74,2.92-7.98,5.12c-2.24,2.2-3.96,4.8-5.17,7.81c-1.21,3.01-1.81,6.34-1.81,10.01
					c0,3.52,0.6,6.8,1.81,9.84c1.21,3.04,2.93,5.67,5.17,7.87c2.24,2.2,4.88,3.92,7.92,5.17c3.04,1.25,6.4,1.87,10.06,1.87
					c3.52,0,6.95-0.59,10.29-1.76c3.34-1.17,6.58-3.12,9.74-5.83l10.12,12.87c-4.25,3.23-9.13,5.67-14.63,7.31
					C349.08,478.89,343.58,479.71,338.08,479.71z M352.93,467.61v-28.93h16.28v31.24L352.93,467.61z"/>
				<path class="st0" d="M385.71,478.39v-77h33.33c6.89,0,12.83,1.12,17.82,3.35c4.99,2.24,8.84,5.44,11.55,9.63
					c2.71,4.18,4.07,9.13,4.07,14.85c0,5.79-1.36,10.76-4.07,14.91c-2.71,4.14-6.56,7.3-11.55,9.46
					c-4.99,2.16-10.93,3.25-17.82,3.25H395.5l8.14-7.7v29.26H385.71z M403.64,451.11l-8.14-8.47h22.55c5.43,0,9.53-1.17,12.32-3.52
					c2.79-2.35,4.18-5.65,4.18-9.9c0-4.25-1.39-7.54-4.18-9.85c-2.79-2.31-6.89-3.46-12.32-3.46H395.5l8.14-8.47V451.11z
					 M434.77,478.39l-19.36-27.94h19.14l19.36,27.94H434.77z"/>
				<path class="st0" d="M503.96,479.71c-6.09,0-11.7-0.99-16.83-2.97c-5.13-1.98-9.61-4.77-13.42-8.36
					c-3.81-3.59-6.77-7.81-8.86-12.65s-3.13-10.12-3.13-15.84c0-5.79,1.04-11.09,3.13-15.9c2.09-4.8,5.04-9,8.86-12.59
					c3.81-3.59,8.27-6.38,13.36-8.36c5.1-1.98,10.69-2.97,16.78-2.97c6.09,0,11.68,0.97,16.78,2.92c5.1,1.94,9.55,4.71,13.36,8.3
					c3.81,3.59,6.77,7.81,8.86,12.65s3.13,10.16,3.13,15.95c0,5.72-1.04,11.02-3.13,15.89c-2.09,4.88-5.04,9.11-8.86,12.71
					c-3.81,3.59-8.27,6.36-13.36,8.31C515.52,478.74,509.97,479.71,503.96,479.71z M503.85,464.64c3.45,0,6.62-0.61,9.51-1.82
					c2.9-1.21,5.45-2.93,7.65-5.17c2.2-2.24,3.91-4.84,5.12-7.81s1.81-6.29,1.81-9.96c0-3.67-0.6-6.99-1.81-9.96
					s-2.92-5.57-5.12-7.81c-2.2-2.24-4.75-3.96-7.65-5.17c-2.9-1.21-6.07-1.81-9.51-1.81c-3.45,0-6.64,0.6-9.57,1.81
					c-2.93,1.21-5.48,2.93-7.64,5.17c-2.16,2.24-3.85,4.84-5.06,7.81c-1.21,2.97-1.81,6.29-1.81,9.96c0,3.67,0.6,6.99,1.81,9.96
					c1.21,2.97,2.9,5.57,5.06,7.81c2.16,2.24,4.71,3.96,7.64,5.17C497.21,464.04,500.4,464.64,503.85,464.64z"/>
				<path class="st0" d="M577.11,464.09h41.91v14.3H559.4v-77h58.19v14.3h-40.48V464.09z M575.79,432.3h37.07v13.97h-37.07V432.3z"
					/>
				<path class="st0" d="M633.21,478.39v-77h14.74l45.43,55.44h-7.15v-55.44h17.6v77h-14.74l-45.43-55.44h7.15v55.44H633.21z"/>
			</g>
		</g>
		<g>
			<g>
				<path class="st0" d="M500.63,540.49v-49h23.59c4.57,0,8.53,0.75,11.87,2.24c3.34,1.49,5.92,3.63,7.74,6.4
					c1.82,2.78,2.73,6.06,2.73,9.84c0,3.78-0.91,7.05-2.73,9.8c-1.82,2.75-4.4,4.89-7.74,6.4c-3.34,1.52-7.29,2.28-11.87,2.28H509.8
					l7.35-7.07v19.11H500.63z M517.15,523.2l-7.35-7.49h13.37c2.29,0,3.98-0.51,5.08-1.54c1.1-1.03,1.64-2.43,1.64-4.2
					s-0.55-3.17-1.64-4.2c-1.1-1.03-2.79-1.54-5.08-1.54H509.8l7.35-7.49V523.2z"/>
				<path class="st0" d="M576.09,541.61c-7.51,0-13.37-2.03-17.57-6.09c-4.2-4.06-6.3-9.75-6.3-17.08v-26.95h16.52v26.46
					c0,3.73,0.68,6.38,2.03,7.95c1.35,1.56,3.17,2.34,5.46,2.34c2.33,0,4.17-0.78,5.5-2.34s2-4.21,2-7.95v-26.46h16.24v26.95
					c0,7.33-2.1,13.02-6.3,17.08C589.46,539.58,583.6,541.61,576.09,541.61z"/>
				<path class="st0" d="M607.52,540.49v-49h13.58l24.92,29.82h-6.3v-29.82h16.1v49h-13.58l-24.92-29.82h6.3v29.82H607.52z"/>
				<path class="st0" d="M674.44,540.49V504.3h-14.35v-12.81h45.22v12.81h-14.35v36.19H674.44z"/>
			</g>
		</g>
	</g>
</g>
<g id="leaves">
</g>
<g id="tree">
	<g>
		<g>
			<path class="st1" d="M327.15,62.61c-8.95,12.27-11.41,23.41-12.23,29.42c-0.43,3.21-2.38,17.52,2.67,32.48
				c1.03,3.05,2.41,6.31,2.91,11.46c0.47,4.83,0.08,10.45-2.29,17.77c-3.89,11.99-7.53,11.3-14.19,25.08
				c-4.73,9.79-7.02,18.67-14.62,25.08c-2.11,1.78-4.38,3.16-6.02,2.44c-1.82-0.8-2.02-3.81-2.44-7.59
				c-0.55-4.95-1.9-9.8-2.29-14.76c-0.44-5.59-4.39-14.13-20.35-26.8c2.88,4.43,6.24,10.52,8.88,18.2
				c2.13,6.18,2.89,10.97,4.16,19.34c2.5,16.6,3.76,24.9,4.44,31.38c2.97,28.09,1.03,28.73,3.3,40.7
				c2.95,15.57,8.43,17.41,13.47,36.11c1.86,6.92,4.93,14.68,4.44,25.08c-0.21,4.5-0.94,8.2-1.58,10.75
				c-2.11-3.03-4.31-6.51-6.45-10.46c-3.07-5.67-3.15-7.19-5.02-10.6c-4.72-8.64-9.57-9.13-14.62-15.91
				c-5.44-7.29-6.2-15.55-6.59-19.2c-0.64-5.9,0.43-7.31,0.29-13.9c-0.11-5.04-0.9-12.1-4.01-20.63c-0.31,11.05-0.71,19.87-1,25.65
				c-0.61,12.2-0.94,14.9,0.14,19.63c1.81,7.9,4.76,9.23,10.89,20.49c2.65,4.86,8.29,15.38,11.18,28.52
				c2.41,10.95,4.65,17.83,1.72,24.93c-0.74,1.8-0.99,1.74-2.15,4.01c-5.44,10.69-2.9,17.84-4.87,29.23
				c-2.19,12.66-6.62,11.28-9.03,25.36c-1.16,6.81,0.02,6.3-0.86,18.91c-1.06,15.33-2.74,15.11-3.44,29.09
				c-0.59,11.76-0.89,17.64-0.72,20.06c0.3,4.3,0.91,8.52-0.43,9.03c-1.48,0.56-4.41-3.82-5.02-4.73
				c-5.54-8.29-5.98-17.37-6.16-22.78c-0.5-15.05,0.22-26.6,0.29-27.66c1.25-19.28,1.88-28.92,3.44-37.83
				c2.54-14.51,6.16-29.95,6.16-29.95c2.15-9.19,3.02-11.82,2.87-16.62c-0.13-4.17-1.08-11.38-9.17-24.65
				c-12.34-20.23-19.3-18.49-23.93-32.24c-3.56-10.56-2.75-21.35-2.44-25.51c0.57-7.61,1.98-10.52,3.15-17.34
				c1.3-7.55,2.1-18.61-0.72-32.96c-0.85,5.36-2.25,13.7-4.3,23.93c-3.07,15.29-3.56,14.71-4.01,20.2
				c-1.27,15.57-1.91,23.36-0.43,29.09c0.32,1.23,1.08,3.91-0.29,5.59c-1.84,2.26-6.73,1.75-9.89,0.43
				c-6.01-2.51-8.36-9.02-11.61-18.48c-2.15-6.27-4.21-14.21-5.3-24.65c-0.89-8.5-0.83-15.69-0.57-20.92
				c-2.1,3.7-3.92,8.21-4.59,13.47c-0.35,2.77-0.58,7.3,3.01,25.36c1.94,9.77,3.12,14.02,1.15,15.33c-1.73,1.15-5.05-0.53-6.88-2.01
				c-2.75-2.23-3.24-4.9-4.59-8.31c-0.86-2.18-4.13-10.47-9.6-13.9c-1.62-1.02-6.43-3.48-15.62-0.57c2.98,0.49,7.55,1.75,11.03,5.45
				c2.4,2.55,3.11,5.02,5.3,10.89c3.19,8.52,4.78,12.78,5.88,14.47c4.92,7.6,12.66,4.75,27.37,11.03
				c11.75,5.02,19.09,12.09,27.37,20.06c8.64,8.32,12.96,12.47,14.47,19.2c2.29,10.17-2.13,21.24-3.01,23.36
				c-2.14,5.12-3.9,6.52-5.02,11.75c-1.24,5.84-0.19,9.46,0.29,14.9c0.44,4.97-0.47,11.29-2.29,23.93
				c-2.14,14.84-3.61,17.56-3.58,26.22c0.02,5.09,0.52,10.21,1.58,15.19c0.23,1.08,1.05,4.83-0.43,8.88
				c-0.51,1.4-1.02,2.78-2.01,3.01c-2.11,0.5-5.09-4.5-9.03-12.04c-2.74-5.25-6.31-12.41-10.17-21.21
				c-0.05,5.98,0.64,11.03,1.43,14.9c1.04,5.1,2.21,10.78,5.88,16.34c3.28,4.97,5.27,4.86,10.46,10.03
				c6.62,6.6,9.85,13.23,15.33,24.5c4.27,8.78,3.44,9.39,7.74,17.34c1.48,2.73,2.83,4.97,2.29,5.45c-0.92,0.82-6.78-4.2-12.04-9.03
				c1.28,4.41,3.1,9.38,5.73,14.62c6.14,12.23,18.24,24.24,19.92,25.94c1.32,1.33,2.03,2.27,3.44,4.16
				c1.63,2.17,2.44,3.26,2.15,3.73c-0.33,0.53-2.11,0.49-9.17-2.58c-4.44-1.96-8.88-3.92-13.33-5.88c0.85,0.8,2.04,2.12,3.01,4.01
				c0.59,1.16,1,1.96,0.72,2.29c-0.68,0.8-4.91-1.62-7.45-3.3c-7.56-4.99-7.35-8.22-12.9-12.47c-0.59-0.45-2.19-1.64-2.58-3.58
				c-0.21-1.05-0.1-2.46,0.43-3.01c1.05-1.09,5.15-0.16,18.91,9.31c-5.56-6.34-9.68-12.12-12.61-16.62
				c-8.05-12.37-5.12-12.04-9.89-17.48c-1.12-1.28-4.02-4.43-4.3-8.88c-0.04-0.68-0.22-3.58,1-4.16c1.14-0.54,3.72,0.85,10.03,9.31
				c-0.92-3.78-2.27-8.59-4.3-14.04c-1.36-3.65-3.52-9.4-7.16-15.76c-3.52-6.15-5.64-8.01-13.9-18.63
				c-8.47-10.88-9.59-11.33-11.18-14.9c-2.35-5.31-2.78-9.73-3.58-18.2c-0.55-5.79-0.39-8.49-0.57-19.49
				c-0.12-7.02-0.3-12.68-0.43-16.19c-2.5,2.21-5.48,5.59-6.73,10.32c-1.49,5.6,0.39,9.6-1,10.32c-2.07,1.07-9.1-6.25-13.33-14.33
				c-8.7-16.62-3.44-34.6-4.3-34.68c-0.68-0.06-5.34,11.07-4.3,24.65c0.21,2.74,0.67,5.81-1,7.02c-2.44,1.76-7.87-1.56-12.18-4.73
				c2.47,2.96,6.54,7.57,12.18,12.61c9.28,8.3,12.84,8.86,16.77,15.05c3.94,6.2,4.76,12.54,5.59,18.91
				c1.07,8.29-0.34,9.38,0.29,17.05c0.96,11.79,5.22,20.5,7.88,25.94c6.03,12.32,9.83,9.89,14.04,20.49
				c2.86,7.2,2.77,13.01,2.58,24.65c-0.04,2.33-0.17,5.36-1.86,6.16c-2.24,1.07-5.95-2.38-8.88-5.16
				c-5.36-5.07-8.89-8.42-10.75-13.9c-3.53-10.43,3.02-16.83-2.01-24.93c-1.68-2.71-3.67-4.02-5.16-5.16
				c-5.9-4.5-13.35-13.38-19.77-32.67c-0.42,3.76-1.75,18.22,4.3,26.51c1.88,2.58,3.73,4.44,3.73,4.44
				c5.31,5.37,8.19,4.86,10.32,8.6c1.89,3.32,2.33,8.5-0.29,10.75c-1.52,1.3-3.62,1.2-4.44,1.15c-9.32-0.6-29.47-19.47-32.67-22.5
				c10.51,19.84,17.08,25.18,21.21,26.22c0.79,0.2,3.46,0.74,5.88,2.87c3.37,2.97,4.12,7.16,4.44,8.74c0,0,0.97,4.83,8.31,22.21
				c6.81,16.12,18.57,13,26.37,29.38c1.63,3.42,6.34,13.32,3.3,23.36c-3.78,12.47-18.34,21.26-36.4,22.64
				c1.19,3.25,2.39,6.5,3.58,9.74c7.58-4.01,14.22-6.05,18.91-7.16c7.48-1.77,10.34-1.26,12.32-0.57c5.28,1.84,8.04,6.45,9.46,8.74
				c13.41,21.76,25.95,26.56,23.5,33.67c-3.5,10.17-31.92,8.7-33.67,8.6c8.26,8.17,16.53,16.34,24.79,24.5
				c2.83-2.77,9.53-8.58,19.92-10.89c4.02-0.89,12.08-2.69,20.2,0.72c8.24,3.45,9.94,9.49,21.92,24.22
				c5.26,6.46,9.87,11.37,12.75,14.33c0.35,4.27,1.14,9.51,2.87,15.33c2,6.76,4.66,12.24,7.02,16.34c1.34,0.19,2.67,0.38,4.01,0.57
				c-2.95-12.84-5.75-18.56-7.88-21.35c-0.35-0.46-1.41-1.79-1-2.44c0.89-1.42,8.16,1.66,10.32,2.58
				c10.77,4.57,15.32,9.16,31.95,21.35c7.42,5.44,10.16,7.19,12.47,11.61c2.95,5.65,2.97,11.43,2.58,15.19
				c7.16,2.77,14.33,5.54,21.49,8.31c-0.57-3.82-1.15-7.64-1.72-11.46c6.26,3.3,12.51,6.59,18.77,9.89
				c1.58,3.87,3.15,7.74,4.73,11.61c6.4,1.91,12.8,3.82,19.2,5.73c-0.25-0.87-0.76-3.13,0.29-5.45c0,0,1.02-2.26,3.73-3.73
				c4.14-2.24,14.67,2.86,26.22,12.47c1.96,0.43,3.92,0.86,5.88,1.29c-4.68-3.65-8.39-6.45-10.89-8.31
				c-2.2-1.64-3.17-2.34-3.01-2.72c0.42-0.99,8.04,0.61,14.19,3.73c3.35,1.7,8.95,5.22,14.04,12.47c5.02,0.67,10.03,1.34,15.05,2.01
				c-5.26-10.9-10.61-15.86-14.76-18.34c-0.95-0.57-3.06-1.74-2.87-2.72c0.44-2.18,11.77-1.56,14.19-1.43
				c9.99,0.54,16.88,0.92,24.22,4.44c13.76,6.61,19.73,19.81,21.64,24.65c-0.26-4.05-1.47-13.88-8.74-23.07
				c-1.58-2-5.35-6.66-11.75-10.03c-13.41-7.06-26.69-2.32-27.08-4.3c-0.35-1.78,10.12-7.38,21.92-6.45
				c7.29,0.58,12.88,3.47,16.19,5.59c-17.75-10.36-26.22-10.18-30.66-7.88c-1.29,0.67-4.97,2.92-10.89,5.45c0,0-4.28,1.82-8.45,3.15
				c-16.08,5.12-41.98-0.43-41.98-0.43c-11.37-2.44-28.71-7.52-48.15-19.06c-14.82-9.15-44.58-28.68-66.77-52.88
				c-5.74-6.25-11.37-13.26-15.48-23.36c-5.89-14.5-5.6-27.94-4.73-35.97c9.75,4.38,24.66,11.01,42.99,18.91
				c31.83,13.73,39.91,16.62,52.88,23.07c11.32,5.63,13.38,7.95,55.69,35.35c12.96,8.39,23.59,15.21,30.57,19.68
				c-8.85-7.96-17.7-15.92-26.56-23.88c-3.26-2.31-7.2-5.63-10.89-10.32c-2.02-2.56-3.69-4.73-3.06-5.73
				c0.72-1.14,4.41-0.72,14.71,3.63c20.01,11.72,37.21,16.36,49.44,18.39c3.52,0.59,5.98,0.85,35.54,2.87
				c39.46,2.7,40.03,2.57,43.23,3.2c14.1,2.78,33.25,11.18,53.88,36.68c-5.81-14.18-14.2-22.52-18.91-26.56
				c-8.12-6.94-16.04-10.25-22.74-12.99c-9.19-3.76-17.46-5.65-27.7-7.26c-21.49-3.39-23.56-1.14-46.43-3.63
				c0,0-21.18-2.31-51.2-16.05c-2.05-0.94-6.14-2.87-6.3-5.73c-0.33-5.77,15.61-10.97,20.63-12.61c11.14-3.63,22.58-5.14,49.48-4.39
				c17.24,0.48,31.29,1.65,55.5,3.7c0,0,6.1,0.21,20.06,1.79c11.03,1.25,14.98,2.14,19.13,4.08c6.13,2.87,10.26,6.9,12.68,9.67
				c-1.79-3.77-5.25-9.47-11.65-12.94c-2.27-1.23-5.32-2.13-11.46-3.25c-10.12-1.85-15.17-2.77-22.16-3.44
				c-4.04-0.39-3.06-0.19-9.59-0.78c-6.49-0.59-11.99-1.2-17.34-1.8c-2.95-0.33-5.27-0.6-8.31-0.96c-12-1.4-21.33-2.54-21.68-2.58
				c-38.66-4.69-63.87-2.39-70.69,1.72c-4.23,2.55-6.81,5.09-13.18,7.45c-12.84,4.76-24.55,2.68-29.61,1.72
				c-4.92-0.94-15.77-3.13-26.37-11.85c-7.81-6.42-7.51-10.79-15.28-20.06c-5.08-6.06-11.57-10.49-23.88-19.49
				c-11.1-8.11-16.65-12.17-20.63-14.33c-13.89-7.53-18.76-4.74-47.96-11.85c-25.04-6.09-33.1-10.97-37.26-18.53
				c-2.08-3.78-3.95-9.61-2.1-11.08c2.43-1.94,9.73,4.93,17.2,9.74c19.22,12.41,32.29,6.62,62.67,14.52
				c8.14,2.12,20.12,5.89,34.2,12.99c-5.84-7.64-15.58-18.34-30.38-26.37c-14.82-8.04-19.42-5.1-33.24-12.99
				c-17.32-9.89-26.31-23.77-35.54-38.02c-11.85-18.3-12.11-27.24-12.04-30.57c0.21-10.07,4.51-17.94,5.16-19.11
				c6.26-11.19,13.6-11.26,18.15-21.02c2.12-4.54,1.73-7.11,1.72-21.02c-0.02-22.35-0.04-33.53,1.72-39.74
				c4.33-15.31,14.89-24.9,19.87-29.42c7.93-7.2,16.99-11.33,34.77-19.3c8.15-3.65,16.35-7.45,27.89-11.27
				c3.99-1.32,17.45-5.65,36.11-8.79c14.07-2.37,33.28-4.42,56.36-3.44c-4.01-5.25-8.02-10.51-12.04-15.76
				c-8.47,3.37-21.92,7.81-38.98,9.46c-15.21,1.47-17.68-0.8-32.1,1.15c-13.13,1.78-28.67,3.88-43.27,13.47
				c-8.25,5.42-17.89,8.47-26.22,13.76c-1.4,0.88-4.72,3.03-6.45,1.86c-1.98-1.34-0.76-6.38,0.29-10.17
				c3.54-12.83,5.69-20.61,12.61-31.24c6.72-10.32,14.07-17.37,18.91-21.49c12.76-10.86,16.81-7.83,33.53-18.91
				c17.56-11.65,16.92-17.24,30.23-22.21c11.63-4.34,12.85-0.34,25.79-5.02c14.18-5.12,16.46-11.27,29.66-16.05
				c2.4-0.87,12.17-3.69,25.22-3.53c5.64,0.07,10.4,0.7,13.95,1.34c0.32-4.97,0.64-9.93,0.96-14.9
				c-13.25,1.58-24.54,3.47-33.44,5.16c-16.37,3.11-21.99,5.07-27.7,8.79c-6.38,4.16-5.5,5.72-11.85,9.17
				c-12.09,6.58-23.51,5.39-28.28,2.48c-1.47-0.9-2.04-1.79-2.29-2.29c-1.44-2.85,0.52-6.09,1.91-9.93
				c1.96-5.43,0.71-6.36,2.1-12.23c2.22-9.34,7.5-15.84,9.36-17.96c3.25-3.71,7.43-6.22,15.67-11.08
				c8.41-4.97,10.33-5.3,21.59-11.46c10.15-5.56,15.22-8.34,17.96-11.08c9.93-9.97,12.42-13.18,12.42-13.18
				c1.6-2.06,3.29-4.43,6.3-5.16c1.77-0.43,4.25-0.35,8.6,2.1c5.92,3.33,9.2,7.62,11.46,10.32c0,0,6.5,7.74,16.62,14.9
				c3.62,2.56,12.01,7.84,23.12,9.74c9.07,1.55,12.62-0.4,30.95-1.72c8.7-0.62,15.74-0.75,20.06-0.76
				c0.19-3.76,0.38-7.51,0.57-11.27c-5.55,0.59-14.73,1.61-26.17,3.06c-16.81,2.13-21,2.97-27.13,1.72c0,0-13.43-3.11-24.84-16.05
				c-3.2-3.62-4.5-6.54-6.11-10.13c-1.53-3.42-1.58-4.62-1.15-5.54c0.72-1.52,2.85-2.5,9.55-2.67c11.41-0.29,14.32,2.32,19.11,0.76
				c1.34-0.44,4.67-1.81,9.93-10.89c7.79-13.43,5.36-18.78,11.27-31.14c3.12-6.53,7.88-16.5,18.34-21.4
				c9.19-4.31,18.44-2.68,22.93-1.53c-4.65-5.03-9.3-10.06-13.95-15.09c-5.71,2.02-14.01,5.88-21.78,13.37
				c-7.68,7.41-11.46,15.1-12.61,17.58c-4.97,10.74-1.93,13.1-7.07,22.16c-2.26,3.98-6.89,11.87-16.05,14.9
				c-2.18,0.72-8.52,3.5-11.08,0.96c-1.96-1.95-0.82-6.23,1.53-14.71c1.13-4.09,1.7-6.13,3.25-10.13
				c2.18-5.62,3.92-14.81,1.34-30.19c-2.66,8.88-4.42,16.19-5.54,21.21c-2.17,9.74-2.57,13.85-5.35,19.49
				c-2.6,5.28-5.17,10.97-11.27,14.14c-1.18,0.61-8.21,4.26-13.18,1.34c-1.17-0.69-5.21-3.49-4.97-20.63
				c0.14-10.12,0.29-21.14,6.11-34.58c3.38-7.79,10.4-20.42,24.07-30.57c6.97-5.17,13.61-8.18,18.34-9.93
				c-4.59-3.12-9.17-6.24-13.76-9.36c-7.18,9.02-13.35,16.01-17.58,20.63c-13.21,14.47-17.48,16.97-20.44,25.6
				c-2.16,6.29-3.69,16.05-4.2,19.3c-0.81,5.15-1.16,8.91-1.34,10.7c-1.37,13.7-2.72,27.1-6.5,35.92
				c-5.96,13.91-13.97,7.03-38.02,30.57c-8.47,8.29-19.18,14.11-27.51,22.54c-1.63,1.66-3.86,3.99-5.92,3.44
				c-5.97-1.61-4.17-25.87-3.63-33.05c0.75-10.1,1.73-23.16,7.45-39.55c9.55-27.34,26-45.85,36.68-55.98
				c-4.9-2.04-9.81-4.08-14.71-6.11c-4.43,6.34-10.53,15.54-17,27.13c-9.12,16.31-15.64,27.97-19.68,44.9
				c-1.12,4.71-3.76,16.94-3.63,32.67c0.11,13.16,2.04,15.95,2.48,31.52c0.43,15.04,0.64,22.56-1.91,31.72
				c-1.48,5.32-7.67,27.5-25.6,36.68c-7.96,4.07-13.18,3.01-20.63,9.74c-4.6,4.16-6.15,7.77-12.04,10.32
				c-1.74,0.76-8.42,3.64-13.76,0.76c-2.74-1.48-3.87-3.8-6.88-11.65c-4.3-11.22-6.45-16.83-8.6-24.84
				c-2.01-7.51-3.02-11.27-3.82-16.81c-1.09-7.55-2.21-15.29-0.38-23.69c1.13-5.18,2.49-6.56,10.51-20.44
				c12.3-21.3,10.17-19.92,15.86-28.28c9.22-13.56,12.56-13.86,15.48-22.54c3.26-9.71,2.13-18.33,1.53-22.54
				c-2.07-14.55-8.54-19.24-12.04-29.61C318.51,97.17,317.28,83.47,327.15,62.61z"/>
			<g>
				<path class="st0" d="M344.73,31.66c-11.83,7.23-23.47,14.7-34.74,22.69c-2.8,2.03-5.65,3.95-8.41,6.02l-8.29,6.18l-8.14,6.36
					c-2.71,2.11-5.34,4.34-8.01,6.5c-10.58,8.79-20.84,17.92-30.65,27.5c-2.43,2.42-4.89,4.8-7.29,7.24l-7.14,7.38l-6.95,7.54
					c-2.28,2.54-4.51,5.13-6.77,7.69c-35.7,41.33-63.94,88.77-82.02,139.72c-4.54,12.72-8.44,25.66-11.67,38.75
					c-3.24,13.09-5.89,26.31-7.82,39.62c-3.83,26.64-5.1,53.61-3.52,80.4c0.81,13.39,2.23,26.74,4.36,39.98
					c2.13,13.24,4.95,26.36,8.45,39.29c6.95,25.88,16.53,51.05,28.63,74.96c12.02,23.96,26.47,46.7,43.01,67.87
					c16.43,21.27,35.04,40.87,55.12,58.84c20.07,17.99,41.8,34.17,64.72,48.48c11.47,7.15,23.26,13.79,35.31,19.93
					c12.04,6.17,24.35,11.83,36.9,16.93c50.14,20.5,104.06,32.21,158.62,33.65c27.27,0.74,54.69-1.17,81.78-5.69
					c13.54-2.28,27-5.2,40.32-8.79c13.34-3.52,26.49-7.82,39.51-12.59c-49.74,24.59-105.36,38.09-161.55,39.88
					c-56.24,1.84-112.95-7.81-166.05-27.36c-13.28-4.89-26.35-10.37-39.16-16.41c-12.8-6.07-25.32-12.73-37.55-19.91
					c-24.49-14.31-47.58-31.03-69.13-49.57c-10.78-9.26-21.07-19.11-30.94-29.36c-9.86-10.26-19.26-20.99-28.11-32.16
					c-17.64-22.39-33.15-46.54-46.01-72.06c-12.79-25.55-23-52.42-30.19-80.09C94.21,493.4,89.88,465,88.76,436.47
					c-2.39-57.06,7.61-114.4,28.52-167.14c5.18-13.21,11.14-26.09,17.64-38.66c6.51-12.57,13.63-24.8,21.37-36.61
					c15.42-23.66,33.16-45.7,52.7-65.87C248.15,87.89,294.62,55.36,344.73,31.66z"/>
			</g>
			<g>
				<path class="st1" d="M390.98,349.71c2.84-3.59,5.55-7.32,8.11-11.16c1.28-1.92,2.52-3.88,3.72-5.85
					c1.2-1.98,2.33-3.99,3.52-6.08c2.39-4.22,5.23-8.23,8.42-11.81c3.18-3.6,6.69-6.84,10.41-9.74c-3.15,3.51-5.99,7.26-8.4,11.23
					c-2.43,3.96-4.37,8.11-5.9,12.44c-0.78,2.18-1.57,4.46-2.44,6.7c-0.87,2.25-1.78,4.48-2.74,6.69
					c-1.92,4.42-4.03,8.78-6.33,13.06L390.98,349.71z"/>
			</g>
			<g>
				<path class="st1" d="M398.22,356.91c1.12,2.61,2.63,5.06,4.52,7.19c0.94,1.06,2,2.09,3.05,2.9c1.09,0.85,2.35,1.61,3.66,2.29
					c2.65,1.37,5.57,2.41,8.59,3.2c3.05,0.77,6.12,1.33,9.23,1.47c3.1,0.15,6.37-0.15,9.76-0.18c3.38-0.04,6.76,0.23,10.07,0.74
					c6.63,1.04,12.99,3.17,18.93,6c-6.23-2.14-12.69-3.5-19.16-3.76c-3.23-0.13-6.45-0.02-9.63,0.39c-3.17,0.38-6.42,1.07-9.91,1.31
					c-3.48,0.24-6.97,0.01-10.37-0.45c-3.42-0.49-6.86-1.26-10.24-2.54c-1.69-0.65-3.36-1.4-5-2.39c-1.68-1.02-3.13-2.13-4.53-3.38
					c-2.79-2.49-5.15-5.47-7.01-8.72L398.22,356.91z"/>
			</g>
			<g>
				<path class="st1" d="M451.48,345.77c7.08,1.62,14.31,2.6,21.57,2.76c3.63,0.08,7.27-0.01,10.89-0.34
					c1.83-0.15,3.58-0.37,5.45-0.62c1.86-0.23,3.56-0.49,5.29-0.88c3.43-0.77,6.81-2.02,10.28-3.4c3.46-1.36,6.96-2.77,10.47-4.11
					c7.04-2.68,14.11-5.15,21.3-7.47l2.69-0.88l2.7-0.79c1.81-0.52,3.62-1.03,5.46-1.49c3.67-0.93,7.41-1.71,11.2-2.13
					c3.79-0.44,7.64-0.52,11.46-0.13c1.9,0.2,3.82,0.5,5.69,1.05c1.88,0.53,3.65,1.35,5.33,2.06c3.35,1.43,6.98,2.15,10.65,2.36
					c3.67,0.21,7.38-0.15,11-0.94c7.27-1.57,14.12-4.77,20.55-8.57c-6.28,4.04-13.02,7.54-20.35,9.42
					c-7.27,1.9-15.24,2.06-22.49-0.65c-1.79-0.67-3.46-1.37-5.2-1.79c-1.74-0.44-3.54-0.65-5.36-0.77
					c-3.64-0.23-7.31-0.01-10.93,0.55c-3.62,0.54-7.2,1.44-10.74,2.48c-1.77,0.52-3.54,1.09-5.3,1.67l-2.65,0.89l-2.61,0.97
					c-6.96,2.54-13.92,5.29-20.76,8.2c-3.43,1.46-6.81,2.97-10.26,4.49c-3.43,1.51-7.03,3.03-10.87,4.05
					c-1.9,0.51-3.89,0.89-5.73,1.2c-1.83,0.32-3.77,0.64-5.67,0.87c-3.82,0.49-7.66,0.74-11.51,0.81c-7.7,0.13-15.42-0.6-22.98-2.03
					L451.48,345.77z"/>
			</g>
			<g>
				<path class="st1" d="M449.23,345.12c7.08-10.76,15.94-20.32,26.15-28.01c10.19-7.7,21.62-13.66,33.78-17.33
					c3.01-0.88,6.03-1.75,9.17-2.38c3.14-0.63,6.35-1.02,9.55-1.06c3.2-0.04,6.4,0.18,9.56,0.79c3.16,0.58,6.17,1.66,9.06,2.5
					c2.9,0.85,5.88,1.3,8.9,1.35c3.02,0.02,6.06-0.34,9.03-1.08c5.95-1.44,11.58-4.18,16.83-7.44c-5.04,3.58-10.52,6.68-16.53,8.53
					c-2.99,0.94-6.12,1.51-9.29,1.68c-3.17,0.15-6.39-0.14-9.48-0.85c-3.09-0.7-6-1.55-8.97-1.91c-2.95-0.38-5.98-0.41-8.96-0.19
					c-2.98,0.22-5.92,0.76-8.81,1.52c-2.89,0.76-5.77,1.78-8.65,2.82c-11.35,4.18-21.86,10.52-30.96,18.31
					c-9.13,7.79-16.8,17.16-22.72,27.47L449.23,345.12z"/>
			</g>
			<g>
				<path class="st1" d="M541.2,330.69c5.55,6.64,12.77,12.04,21.02,15.36c2.05,0.86,4.18,1.53,6.33,2.14
					c2.16,0.56,4.36,1.04,6.59,1.36c4.46,0.64,9.02,0.79,13.57,0.41c-4.48,0.88-9.09,1.24-13.71,1.09
					c-2.31-0.08-4.62-0.32-6.92-0.65c-2.29-0.39-4.59-0.84-6.84-1.51c-9.04-2.52-17.5-7.44-24.42-14.09L541.2,330.69z"/>
			</g>
			<g>
				<path class="st1" d="M523.82,297.2c0.45-3,1.11-5.99,2.11-8.93c1.02-2.92,2.38-5.81,4.36-8.35c0.98-1.27,2.09-2.46,3.36-3.46
					c1.26-1.02,2.63-1.89,4.13-2.54c1.49-0.65,3.07-1.06,4.6-1.3c1.53-0.24,3.01-0.34,4.47-0.42c2.91-0.15,5.73-0.31,8.57-0.64
					c2.84-0.33,5.66-0.79,8.47-1.39c5.61-1.18,11.14-2.89,16.51-5.02c-5.17,2.59-10.56,4.78-16.14,6.47
					c-2.79,0.85-5.62,1.57-8.49,2.16c-2.86,0.59-5.79,1.01-8.63,1.4c-2.85,0.4-5.53,0.89-7.73,2.12c-1.11,0.6-2.13,1.39-3.04,2.27
					c-0.93,0.87-1.72,1.88-2.41,2.96c-2.77,4.37-3.82,9.85-4.17,15.31L523.82,297.2z"/>
			</g>
			<g>
				<path class="st1" d="M496.5,244.22c4.87,6.13,11.46,10.97,18.94,13.67c3.74,1.37,7.67,2.14,11.77,2.52
					c4.09,0.43,8.15,0.43,12.23-0.04c4.07-0.48,8.12-1.4,12.15-2.53c4.04-1.15,8.08-2.34,12.01-3.76
					c7.9-2.84,15.54-6.45,22.82-10.73c-6.97,4.77-14.39,8.93-22.17,12.35c-3.9,1.72-7.87,3.19-11.87,4.64
					c-4.01,1.44-8.14,2.69-12.42,3.49c-4.27,0.8-8.69,1.1-13.02,0.94c-4.32-0.1-8.8-0.64-13.1-1.89
					c-8.61-2.45-16.53-7.41-22.64-14.1L496.5,244.22z"/>
			</g>
			<g>
				<path class="st1" d="M494.21,239.18c4.25-1.07,8.45-2.43,12.56-4.07c4.14-1.63,8.03-3.59,12.11-5.78
					c2.05-1.08,4.23-2.11,6.48-2.88c2.25-0.76,4.55-1.32,6.86-1.65c4.63-0.68,9.29-0.52,13.78,0.2c-4.56-0.06-9.1,0.47-13.35,1.75
					c-2.13,0.63-4.18,1.46-6.13,2.46c-1.94,1-3.74,2.19-5.55,3.52c-3.61,2.68-7.51,5.44-11.57,7.76c-4.06,2.35-8.29,4.45-12.67,6.27
					L494.21,239.18z"/>
			</g>
			<g>
				<path class="st1" d="M590.54,192.29c5.02-0.94,10.21-1.02,15.21-0.1c2.5,0.44,4.96,1.19,7.28,2.15
					c2.33,0.94,4.48,2.09,6.63,3.04c2.14,0.97,4.34,1.7,6.63,2.09c2.29,0.37,4.66,0.43,7.01,0.15c4.71-0.52,9.3-2.22,13.59-4.42
					c-4.08,2.57-8.54,4.69-13.4,5.66c-2.42,0.49-4.92,0.66-7.43,0.47c-2.5-0.2-4.99-0.8-7.32-1.62c-2.34-0.81-4.55-1.75-6.78-2.43
					c-2.22-0.7-4.46-1.17-6.74-1.37c-4.57-0.44-9.18,0.04-13.57,1.26L590.54,192.29z"/>
			</g>
			<g>
				<path class="st1" d="M592.16,198.56c1.99,5.2,5.21,10.04,9.49,13.94c4.26,3.92,9.52,6.91,15.23,8.78
					c-5.94-0.9-11.83-3-17.06-6.41c-5.25-3.38-9.77-8.11-13.05-13.67L592.16,198.56z"/>
			</g>
			<g>
				<path class="st1" d="M551.91,126.94c3.52,0.36,7.08,0.55,10.64,0.52c3.58-0.01,7.11-0.28,10.76-0.67
					c1.83-0.18,3.75-0.37,5.69-0.3c1.94,0.07,3.83,0.39,5.66,0.88c3.66,0.98,7.02,2.71,9.96,4.88c-3.25-1.69-6.76-2.8-10.29-3.16
					c-1.76-0.18-3.53-0.18-5.24,0.03c-1.71,0.2-3.4,0.65-5.16,1.12c-3.53,0.97-7.22,1.85-10.92,2.46
					c-3.71,0.62-7.47,1.03-11.25,1.25L551.91,126.94z"/>
			</g>
			<g>
				<path class="st1" d="M627.4,94.71c-3.19,0.61-6.42,1.05-9.66,1.33c-3.24,0.31-6.5,0.44-9.76,0.49c-3.26,0.03-6.53-0.1-9.79-0.28
					c-3.26-0.22-6.52-0.56-9.76-1.01l-0.92-0.13l-0.61-0.8l-4.38-5.76l-1.35-1.77l1.68-1.53c3.67-3.35,7.87-6.17,12.43-8.2
					c2.27-1.03,4.67-1.85,7.08-2.45c2.41-0.61,4.82-0.96,7.03-1.41c2.23-0.42,4.26-1.05,6.18-2.08c1.92-1.01,3.7-2.34,5.26-3.97
					c3.18-3.21,5.51-7.36,7.52-11.67c-0.87,4.68-2.55,9.34-5.51,13.38c-1.5,1.99-3.31,3.83-5.46,5.26
					c-2.14,1.43-4.61,2.44-6.99,3.11c-2.39,0.68-4.65,1.16-6.81,1.82c-2.16,0.65-4.22,1.46-6.24,2.44
					c-4.04,1.94-7.81,4.46-11.17,7.45l0.33-3.31l4.21,5.89l-1.53-0.93c3.13,0.57,6.28,1.08,9.43,1.53c3.15,0.48,6.33,0.84,9.51,1.18
					c3.18,0.35,6.38,0.6,9.59,0.85C620.93,94.32,624.15,94.53,627.4,94.71z"/>
			</g>
			<g>
				<path class="st1" d="M559.38,33.19c-1.94,3.07-4.3,5.83-6.83,8.45c-2.56,2.59-5.37,4.96-8.37,7.07c-3,2.11-6.2,3.97-9.54,5.53
					c-3.32,1.6-6.81,2.86-10.35,3.86l-1.33,0.38l-1.09-0.72L519.19,56c-0.9-0.59-1.79-1.19-2.67-1.8l-2.33-1.61l1.41-2.2
					c2.47-3.88,4.85-7.83,7.17-11.86l3.45-6.1c1.13-2.06,2.28-4.13,3.46-6.21c-0.3,2.38-0.75,4.73-1.34,7.04
					c-0.58,2.32-1.25,4.62-2.05,6.87c-1.57,4.52-3.54,8.91-5.84,13.12l-0.92-3.81c0.93,0.53,1.85,1.08,2.77,1.64l2.76,1.67
					l-2.42-0.34c3.27-1,6.49-2.16,9.64-3.49c3.15-1.33,6.26-2.78,9.3-4.42c3.03-1.64,6.03-3.39,8.98-5.3
					C553.53,37.32,556.39,35.25,559.38,33.19z"/>
			</g>
			<g>
				<path class="st1" d="M453.59,245.77c0.76-4.6,2.25-9.06,4.44-13.11c1.08-2.03,2.38-3.96,3.8-5.73c1.42-1.77,2.95-3.37,4.44-4.91
					c3-3.05,5.79-6.2,8.36-9.61c2.57-3.4,4.93-6.98,7.08-10.7c-1.63,3.98-3.49,7.88-5.62,11.66c-2.11,3.77-4.56,7.45-7.15,10.91
					c-1.27,1.73-2.5,3.43-3.54,5.17c-1.05,1.74-1.92,3.53-2.61,5.41c-1.41,3.74-2.13,7.69-2.24,11.63L453.59,245.77z"/>
			</g>
			<g>
				<path class="st1" d="M422.82,198.2c-1.95-5.87-2.05-12.29-0.2-18.04c0.91-2.86,2.25-5.55,3.97-7.96
					c1.71-2.43,3.93-4.54,6.23-6.17c1.14-0.82,2.28-1.55,3.27-2.29c0.98-0.73,1.82-1.55,2.58-2.51c1.5-1.93,2.52-4.3,3.2-6.81
					c1.35-5.05,1.35-10.5,1.01-15.86c0.99,5.28,1.71,10.72,0.95,16.25c-0.39,2.75-1.17,5.55-2.67,8.1
					c-0.75,1.26-1.71,2.46-2.78,3.48c-1.05,1.01-2.09,1.86-3.03,2.74c-1.89,1.73-3.39,3.6-4.53,5.74c-1.15,2.13-1.95,4.44-2.39,6.79
					c-0.87,4.67-0.14,9.5,1.84,13.62L422.82,198.2z"/>
			</g>
			<g>
				<path class="st1" d="M473.83,146.67c-3.38-3.37-6.31-7.28-8.37-11.6c-1.03-2.13-1.84-4.48-2.41-6.6
					c-0.57-2.1-1.13-3.87-2.03-5.71c-0.44-0.89-0.96-1.86-1.47-2.75c-0.51-0.9-1.06-1.76-1.65-2.59c-1.19-1.65-2.59-3.16-4.21-4.47
					c-3.22-2.62-7.26-4.36-11.53-5.15c4.34,0.05,8.79,1.06,12.78,3.28c1.99,1.11,3.85,2.5,5.5,4.12c0.82,0.81,1.6,1.67,2.33,2.54
					c0.73,0.89,1.4,1.73,2.09,2.68c1.37,1.86,2.54,4.09,3.44,6.06c0.91,1.95,1.84,3.59,2.99,5.2c2.27,3.19,5.15,5.89,8.36,8.13
					L473.83,146.67z"/>
			</g>
			<g>
				<polygon class="st1" points="427.32,84.87 447.18,80.88 429.36,90.51 				"/>
			</g>
			<g>
				<path class="st1" d="M421.3,84.21c1.3-1.8,2.43-3.72,3.35-5.75c0.91-2.01,1.69-4.2,2.12-6.29c0.42-2.1,0.54-4.53,0.73-6.91
					l0.56-7.2c0.42-4.78,0.7-9.61,1.52-14.42c0.83-4.78,2.06-9.47,3.71-13.99c-1.16,4.66-1.9,9.41-2.22,14.16
					c-0.31,4.73-0.08,9.53-0.01,14.33l0.19,7.2c0.05,2.41,0.21,4.8-0.02,7.46c-0.27,2.66-0.88,5.1-1.69,7.57
					c-0.82,2.44-1.9,4.81-3.18,7.06L421.3,84.21z"/>
			</g>
			<g>
				<path class="st1" d="M402.44,690.24c5.75-1.6,11.47-3.34,17.16-5.21c5.7-1.85,11.3-3.9,17-5.91c2.86-0.98,5.81-1.92,8.88-2.38
					c3.05-0.46,6.13-0.55,9.17-0.32c6.09,0.46,11.97,2.23,17.42,4.74c-5.61-2.13-11.54-3.46-17.47-3.49
					c-2.96-0.02-5.92,0.28-8.77,0.92c-2.85,0.63-5.59,1.72-8.33,2.87c-5.48,2.37-11.01,4.84-16.61,7.09
					c-5.59,2.28-11.24,4.43-16.94,6.45L402.44,690.24z"/>
			</g>
			<g>
				<path class="st1" d="M410.27,689.48c4.63,0.41,9.24,0.99,13.81,1.73c4.57,0.73,9.13,1.7,13.59,2.7c4.44,1,8.95,1.46,13.51,1.27
					c4.55-0.17,9.1-0.95,13.53-2.17c-4.33,1.54-8.84,2.66-13.45,3.17c-4.6,0.54-9.34,0.4-13.93-0.29c-4.57-0.68-9.07-1.3-13.62-1.69
					c-4.54-0.4-9.1-0.64-13.64-0.72L410.27,689.48z"/>
			</g>
			<g>
				<path class="st1" d="M429.23,692.18c0.94-1.26,2.15-2.3,3.46-3.09c1.31-0.79,2.75-1.3,4.18-1.58c2.88-0.54,5.76-0.28,8.45,0.43
					c-2.76-0.22-5.57,0.06-8.03,1.01c-1.23,0.48-2.35,1.14-3.29,1.97c-0.93,0.83-1.71,1.79-2.25,2.88L429.23,692.18z"/>
			</g>
			<g>
				<path class="st1" d="M486.95,693.42c0.81-4.74,2.23-9.34,4.22-13.64c1-2.15,2.1-4.25,3.39-6.23c0.6-1.01,1.32-1.95,1.98-2.92
					c0.73-0.92,1.41-1.88,2.19-2.75c3.05-3.56,6.53-6.7,10.39-9.23c3.85-2.55,8.01-4.55,12.33-5.96c-4.14,1.87-8,4.29-11.43,7.16
					c-3.45,2.85-6.42,6.21-8.9,9.85c-0.64,0.89-1.18,1.86-1.76,2.79c-0.52,0.97-1.08,1.91-1.54,2.9c-0.98,1.95-1.78,3.99-2.47,6.05
					c-1.38,4.12-2.19,8.41-2.44,12.68L486.95,693.42z"/>
			</g>
			<g>
				<path class="st1" d="M489.2,694.74c3.07-7.97,7.83-15.33,14.1-21.11c3.11-2.89,6.6-5.41,10.36-7.38c3.75-2,7.74-3.4,11.73-4.54
					c4.01-1.12,8.01-2.01,12.04-2.89c4.04-0.86,8.12-1.52,12.22-1.99c8.19-0.93,16.45-1.11,24.63-0.56
					c-8.2-0.13-16.4,0.46-24.46,1.8c-4.03,0.67-8.02,1.53-11.96,2.58c-3.94,1.08-7.9,2.17-11.73,3.45
					c-3.83,1.3-7.55,2.83-10.95,4.88c-3.41,2.01-6.52,4.51-9.27,7.34c-5.53,5.65-9.55,12.64-12.01,20.11L489.2,694.74z"/>
			</g>
			<g>
				<path class="st1" d="M481.67,695.86c-0.26-3.61-0.2-7.23,0.19-10.79c0.37-3.57,1.09-7.08,2.08-10.48
					c2.01-6.81,5.23-13.17,9.38-18.74c-3.46,6.03-5.82,12.6-6.95,19.3c-0.55,3.35-0.83,6.74-0.77,10.1c0.05,3.36,0.39,6.7,1.03,9.97
					L481.67,695.86z"/>
			</g>
			<g>
				<path class="st1" d="M499.92,678.95l5.64-1l2.83-0.5l2.81-0.58c3.74-0.79,7.44-1.76,11.18-2.73c3.75-0.97,7.57-1.72,11.41-2.15
					c3.84-0.44,7.7-0.6,11.55-0.52c-3.84,0.17-7.67,0.58-11.44,1.26c-3.77,0.67-7.47,1.65-11.1,2.85c-3.64,1.2-7.32,2.43-11.05,3.47
					l-2.8,0.77l-2.82,0.69l-5.65,1.39L499.92,678.95z"/>
			</g>
			<g>
				<path class="st1" d="M487.19,703.44c4.61,2.48,9.01,5.32,13.14,8.5c2.07,1.58,4.06,3.27,5.97,5.03
					c1.92,1.76,3.71,3.61,5.55,5.34c3.63,3.45,7.98,6.14,12.67,8.06c4.7,1.93,9.72,3.09,14.79,3.81
					c-5.11-0.39-10.22-1.21-15.14-2.87c-4.9-1.64-9.61-4.13-13.64-7.49c-2.01-1.66-3.9-3.37-5.87-4.95
					c-1.97-1.59-3.99-3.09-6.09-4.49c-4.19-2.81-8.6-5.27-13.17-7.35L487.19,703.44z"/>
			</g>
			<g>
				<path class="st1" d="M512,722.17c0.48-0.54,1-1.05,1.56-1.51c0.55-0.47,1.19-0.82,1.78-1.23c1.23-0.74,2.56-1.31,3.92-1.67
					c2.73-0.75,5.54-0.84,8.27-0.59c2.74,0.25,5.41,0.84,8.02,1.62c2.6,0.79,5.14,1.75,7.6,2.88c-2.52-0.98-5.11-1.78-7.73-2.4
					c-2.62-0.61-5.29-1.02-7.95-1.1c-2.65-0.08-5.32,0.18-7.77,1.03c-1.23,0.41-2.38,0.99-3.42,1.71c-0.49,0.4-1.03,0.73-1.49,1.17
					c-0.46,0.43-0.88,0.9-1.27,1.39L512,722.17z"/>
			</g>
			<g>
				<path class="st1" d="M543.49,694.41c2.26-2.29,4.8-4.29,7.59-5.9c1.38-0.83,2.85-1.49,4.33-2.11c1.5-0.56,3.01-1.07,4.56-1.43
					c3.07-0.76,6.18-1.14,9.26-1.36c3.08-0.22,6.15-0.29,9.2-0.32c12.22-0.07,24.41,0.43,36.55,1.49
					c-12.17-0.39-24.36-0.23-36.48,0.51c-3.03,0.19-6.05,0.43-9.02,0.81c-2.98,0.38-5.92,0.91-8.71,1.77
					c-5.62,1.62-10.53,4.95-14.34,9.27L543.49,694.41z"/>
			</g>
			<g>
				<path class="st1" d="M598.06,702.44c0.24,1.81,1.02,3.51,2.34,4.8c0.66,0.65,1.45,1.19,2.32,1.65c0.44,0.23,0.89,0.44,1.37,0.65
					c0.49,0.22,1,0.47,1.48,0.75c1.92,1.11,3.52,2.62,4.86,4.27c1.35,1.65,2.44,3.48,3.4,5.34c-1.18-1.74-2.46-3.4-3.95-4.83
					c-1.48-1.44-3.15-2.66-4.98-3.44c-0.46-0.2-0.91-0.36-1.4-0.51c-0.5-0.15-1.02-0.32-1.54-0.52c-1.04-0.4-2.08-0.93-3.01-1.65
					c-1.89-1.42-3.24-3.6-3.82-5.89L598.06,702.44z"/>
			</g>
			<g>
				<path class="st1" d="M554.68,698.74c8.2,7.91,16.97,15.29,25.84,22.49c8.88,7.13,18.42,13.53,28.94,17.87
					c5.21,2.18,10.91,3.07,16.43,4.79c5.52,1.65,10.92,3.62,16.23,5.8c10.62,4.38,20.81,9.75,30.47,15.92
					c-9.79-5.96-20.08-11.09-30.75-15.22c-5.34-2.05-10.76-3.9-16.26-5.41c-2.75-0.76-5.53-1.39-8.33-2.03
					c-2.8-0.63-5.62-1.4-8.33-2.45c-10.82-4.18-20.65-10.49-29.78-17.49c-9.08-7.05-18.03-14.25-26.51-22.08L554.68,698.74z"/>
			</g>
			<g>
				<path class="st1" d="M592.01,747.69c1.93-1.82,4.12-3.31,6.66-4.31c2.57-0.96,5.21-1.2,7.76-1.21
					c5.13,0.02,10.08,0.97,14.92,2.15c2.42,0.61,4.81,1.28,7.18,1.97c2.38,0.69,4.76,1.37,7.13,2.22c1.18,0.43,2.37,0.91,3.52,1.53
					c0.58,0.3,1.13,0.67,1.64,1.04c0.51,0.38,1.06,0.71,1.54,1.13c2.01,1.57,3.74,3.49,5.18,5.57c2.88,4.19,4.57,8.91,6.62,13.36
					c2,4.48,4.46,8.74,7.62,12.5c3.14,3.76,6.85,7.05,10.89,9.86c4.04,2.82,8.41,5.16,12.92,7.16c-4.56-1.89-8.99-4.12-13.13-6.85
					c-4.13-2.73-7.96-5.94-11.25-9.68c-3.3-3.73-5.93-8.03-8.06-12.51c-2.18-4.45-3.98-9.08-6.82-12.97
					c-1.41-1.94-3.07-3.69-4.99-5.11c-0.46-0.38-0.98-0.68-1.47-1.02c-0.5-0.34-0.98-0.65-1.5-0.91c-1.04-0.53-2.16-0.95-3.3-1.33
					c-2.3-0.76-4.68-1.37-7.06-2c-2.39-0.63-4.77-1.23-7.15-1.76c-4.76-1.03-9.61-1.82-14.37-1.71c-2.37,0.06-4.72,0.36-6.77,1.2
					c-2.04,0.86-3.99,2.24-5.6,3.84L592.01,747.69z"/>
			</g>
			<g>
				<path class="st1" d="M593.51,730.94c1.88-1.73,4.04-3.08,6.36-3.99c2.32-0.9,4.79-1.36,7.23-1.29
					c4.89,0.11,9.44,2.25,12.75,5.41c-3.74-2.66-8.36-3.96-12.66-3.41c-4.31,0.5-8.2,2.83-10.77,6.03L593.51,730.94z"/>
			</g>
			<g>
				<path class="st1" d="M640.61,711.06c-0.73,0.5-1.36,1.08-1.79,1.75c-0.22,0.34-0.39,0.7-0.49,1.1c-0.1,0.43-0.16,0.87-0.16,1.34
					c0,0.92,0.24,1.89,0.7,2.78c0.46,0.9,1.15,1.72,1.99,2.39c-1.01-0.38-1.98-0.97-2.79-1.79c-0.81-0.81-1.48-1.84-1.87-3.01
					c-0.19-0.59-0.32-1.21-0.37-1.85c-0.04-0.67,0.02-1.36,0.18-2.02c0.32-1.32,0.99-2.5,1.76-3.51L640.61,711.06z"/>
			</g>
			<g>
				<path class="st1" d="M630.36,766.9c3.18-0.87,6.58-1.09,9.82-0.45c3.24,0.65,6.25,2.15,8.71,4.21c2.47,2.07,4.43,4.65,5.85,7.45
					c1.46,2.8,2.32,5.85,2.79,8.91c-0.72-3.02-1.81-5.95-3.45-8.54c-1.59-2.61-3.67-4.9-6.11-6.63c-2.44-1.73-5.26-2.84-8.15-3.18
					c-2.89-0.34-5.84,0.1-8.57,1.09L630.36,766.9z"/>
			</g>
			<g>
				<path class="st1" d="M627.08,766.99c-1,4.99-1.41,10.11-1.21,15.23l0,0.11l0.09,1.46l0.13,1.59c0.1,1.06,0.22,2.11,0.36,3.17
					c0.29,2.1,0.63,4.2,1.19,6.22c1.06,4.04,2.89,7.92,5.12,11.55c2.24,3.63,4.88,7.04,7.75,10.24c2.88,3.2,6,6.2,9.32,8.96
					c-3.48-2.56-6.79-5.38-9.88-8.43c-3.08-3.06-5.97-6.34-8.48-9.93c-2.51-3.59-4.66-7.49-6.05-11.74
					c-0.72-2.11-1.2-4.27-1.63-6.43c-0.21-1.08-0.4-2.16-0.57-3.25l-0.23-1.63l-0.1-0.82l-0.05-0.41l-0.02-0.21
					c-0.01-0.07-0.02-0.11-0.03-0.32l0,0.11c-0.53-5.34-0.43-10.76,0.32-16.11L627.08,766.99z"/>
			</g>
			<g>
				<path class="st1" d="M633.46,828.49c-1.86-4.65-2.98-9.56-3.3-14.5c-0.32-4.94,0.14-9.91,1.35-14.65
					c-0.89,4.82-1,9.75-0.36,14.56c0.64,4.8,2.06,9.48,4.14,13.8L633.46,828.49z"/>
			</g>
			<g>
				<path class="st1" d="M525.52,743.24c0.71,2.06,1.6,4.06,2.66,5.96c0.53,0.95,1.11,1.88,1.74,2.77c0.59,0.92,1.29,1.76,1.96,2.63
					c1.41,1.68,2.95,3.26,4.62,4.71c1.68,1.45,3.48,2.76,5.36,3.95c1.89,1.19,3.86,2.25,5.92,3.2l1.58,0.72l1.67,0.86
					c0.56,0.28,1.05,0.66,1.58,0.99l0.77,0.51l0.72,0.57c3.87,3.04,6.87,6.83,9.43,10.8c2.56,3.98,4.69,8.16,6.68,12.39
					c1.89,4.27,3.67,8.59,5.22,12.98c3.15,8.76,5.76,17.69,8.12,26.67c-2.76-8.86-5.76-17.65-9.29-26.21
					c-1.73-4.29-3.69-8.48-5.74-12.61c-2.14-4.08-4.42-8.08-7.05-11.8c-2.63-3.71-5.66-7.15-9.23-9.69l-0.66-0.48l-0.7-0.41
					c-0.47-0.26-0.91-0.58-1.4-0.79l-1.45-0.67l-1.62-0.65c-2.21-0.89-4.38-1.94-6.47-3.13c-2.09-1.19-4.11-2.53-6.02-4.04
					c-1.9-1.51-3.69-3.18-5.34-4.99c-0.8-0.93-1.62-1.85-2.33-2.85c-0.75-0.97-1.45-1.99-2.1-3.04c-1.3-2.09-2.4-4.31-3.31-6.6
					L525.52,743.24z"/>
			</g>
			<g>
				<path class="st1" d="M547.59,766.11c4.53-1.55,9.27-2.47,14.03-2.68c4.76-0.21,9.53,0.27,14.11,1.42
					c4.58,1.13,8.98,2.89,13.12,5.08c4.12,2.22,7.99,4.88,11.52,7.91c-3.69-2.84-7.67-5.27-11.86-7.24
					c-4.2-1.94-8.59-3.42-13.1-4.28c-4.5-0.87-9.11-1.09-13.63-0.64c-4.52,0.45-8.96,1.56-13.15,3.25L547.59,766.11z"/>
			</g>
			<g>
				<path class="st1" d="M555.82,771.87c2.02-0.81,4.16-1.37,6.32-1.62c2.17-0.23,4.36-0.2,6.49,0.14
					c4.28,0.66,8.23,2.47,11.72,4.77c3.51,2.31,6.61,5.13,9.4,8.18c2.79,3.06,5.29,6.36,7.45,9.87c-2.37-3.37-5.06-6.49-7.99-9.35
					c-2.94-2.84-6.15-5.41-9.65-7.42c-3.49-2-7.31-3.45-11.23-3.81c-1.95-0.19-3.91-0.09-5.82,0.22c-1.91,0.34-3.76,0.95-5.51,1.77
					L555.82,771.87z"/>
			</g>
			<g>
				<path class="st1" d="M604.44,832.41c-1.89-4.21-4.41-8.18-7.39-11.77c-3-3.59-6.51-6.75-10.4-9.41
					c-3.92-2.62-8.2-4.74-12.74-6.18c-4.53-1.46-9.29-2.29-14.09-2.47c4.8-0.16,9.66,0.34,14.37,1.5c4.72,1.15,9.28,3.01,13.53,5.45
					c4.23,2.47,8.15,5.53,11.58,9.1c3.41,3.57,6.38,7.6,8.75,12.01L604.44,832.41z"/>
			</g>
			<g>
				<path class="st1" d="M564.18,835.45c-0.9-4.01-2.63-8.02-4.96-11.54c-2.32-3.56-5.37-6.64-8.96-8.99
					c-3.58-2.36-7.71-3.95-12.01-4.65c-4.31-0.68-8.79-0.53-13.11,0.47c4.23-1.32,8.74-1.84,13.23-1.47
					c4.48,0.39,8.93,1.7,12.92,3.92c4.01,2.2,7.56,5.29,10.37,8.96c2.82,3.67,5.01,7.77,6.4,12.31L564.18,835.45z"/>
			</g>
			<g>
				<path class="st1" d="M469.19,746.94c1.88-0.73,3.85-1.26,5.85-1.53l3.01-0.2c1-0.04,2,0.1,2.99,0.14
					c3.97,0.42,7.75,1.73,11.19,3.53c3.45,1.8,6.59,4.08,9.48,6.6c2.89,2.53,5.53,5.32,7.9,8.31c-2.57-2.82-5.37-5.42-8.38-7.73
					c-3.01-2.3-6.23-4.32-9.66-5.83c-3.42-1.51-7.05-2.49-10.7-2.64c-0.91,0.02-1.82-0.05-2.72,0.05l-2.68,0.36
					c-1.77,0.36-3.48,0.94-5.1,1.7L469.19,746.94z"/>
			</g>
			<g>
				<path class="st1" d="M466.6,748.15c-0.66,1.68-1.15,3.44-1.43,5.23c-0.17,0.89-0.18,1.8-0.23,2.71l-0.07,1.37l0.1,1.37
					c0.23,3.65,1.27,7.28,2.87,10.67c1.6,3.39,3.72,6.56,6.15,9.48c2.42,2.92,5.15,5.62,8.11,8.04c-3.12-2.22-6.03-4.74-8.67-7.54
					c-2.64-2.8-5.03-5.88-6.92-9.29c-1.89-3.41-3.27-7.17-3.77-11.13l-0.2-1.48l-0.02-1.5c-0.01-1-0.06-2.01,0.06-3.01
					c0.19-2,0.6-3.99,1.21-5.91L466.6,748.15z"/>
			</g>
			<g>
				<path class="st1" d="M454.74,740.49c-0.6,1.32-1.11,2.68-1.5,4.08c-0.2,0.7-0.36,1.41-0.48,2.13c-0.12,0.72-0.3,1.43-0.34,2.16
					c-0.34,2.9-0.2,5.87,0.34,8.77c0.54,2.91,1.47,5.75,2.67,8.48c1.2,2.73,2.7,5.34,4.4,7.81c-1.84-2.37-3.49-4.9-4.86-7.59
					c-1.37-2.69-2.48-5.53-3.2-8.49c-0.72-2.96-1.04-6.03-0.86-9.11c0-0.77,0.14-1.53,0.23-2.3c0.09-0.77,0.21-1.53,0.38-2.28
					c0.33-1.51,0.79-3,1.36-4.44L454.74,740.49z"/>
			</g>
			<g>
				<path class="st1" d="M389.33,777.44l17.16-0.3c5.72-0.08,11.43-0.15,17.18-0.06c2.86,0.07,5.8,0.14,8.68,0.78
					c2.85,0.59,5.62,1.49,8.28,2.6c5.32,2.25,10.18,5.42,14.51,9.14c-4.54-3.46-9.55-6.31-14.88-8.21c-2.67-0.94-5.4-1.65-8.18-2.06
					c-2.75-0.45-5.55-0.35-8.39-0.26c-5.68,0.24-11.38,0.64-17.07,1.05l-17.07,1.29L389.33,777.44z"/>
			</g>
			<g>
				<path class="st1" d="M422.03,778.31c2.33,3.23,5.43,5.93,9.02,7.81c3.59,1.9,7.64,2.94,11.76,3.2
					c-4.12,0.08-8.32-0.64-12.19-2.3c-3.87-1.64-7.39-4.21-10.16-7.47L422.03,778.31z"/>
			</g>
			<g>
				<path class="st1" d="M378.32,690.86c0.94,5.44,2.62,10.77,5.05,15.78c2.42,5.02,5.6,9.69,9.37,13.87
					c3.77,4.18,8.13,7.88,12.84,11.08c4.74,3.16,9.84,5.83,15.18,7.94c-5.48-1.72-10.8-4.03-15.84-6.88
					c-5.01-2.89-9.75-6.34-13.98-10.4c-4.23-4.05-7.93-8.71-10.89-13.85c-2.98-5.12-5.19-10.71-6.63-16.5L378.32,690.86z"/>
			</g>
			<g>
				<path class="st1" d="M304.02,685.16c4.41,1.82,8.66,3.98,12.71,6.45c1.01,0.62,2,1.25,3,1.91c1,0.67,1.97,1.38,2.9,2.1
					c1.87,1.44,3.67,2.91,5.47,4.4c3.58,2.97,7.13,5.96,10.59,9.07l10.43,9.23l-11.21-8.25c-3.71-2.77-7.5-5.44-11.32-8.06
					c-1.91-1.31-3.82-2.61-5.75-3.83c-0.96-0.61-1.93-1.19-2.9-1.72c-0.99-0.53-2.01-1.07-3.02-1.56c-4.07-2.01-8.29-3.69-12.6-5.03
					L304.02,685.16z"/>
			</g>
			<g>
				<path class="st1" d="M322.87,722.37c6.7,1.37,13.5,2.37,20.34,2.96c3.42,0.3,6.84,0.49,10.28,0.56l10.38,0.12
					c3.49,0.09,7.05,0.42,10.47,1.32c3.42,0.87,6.71,2.19,9.76,3.9c6.13,3.41,11.36,8.16,15.8,13.45
					c-4.69-5.08-10.11-9.53-16.26-12.57c-3.06-1.53-6.31-2.65-9.64-3.33c-3.32-0.71-6.72-0.86-10.14-0.78l-10.37,0.38
					c-3.48,0.09-6.98,0.07-10.47-0.07c-6.98-0.26-13.94-0.95-20.86-2.02L322.87,722.37z"/>
			</g>
			<g>
				<path class="st1" d="M343.07,743.99l16.77-0.27l2.09-0.03c0.65,0,1.31-0.02,2-0.05c1.36-0.06,2.78-0.15,4.21-0.18
					c2.85-0.08,5.85,0.1,8.61,0.6l0.93,0.17l0.23,0.04l0.12,0.02l0.06,0.01c0.02,0,0.01,0,0.04,0.01c0.08,0,0.24,0.02,0.25,0.03
					l0.54,0.12c0.7,0.16,1.4,0.34,2.09,0.53c0.69,0.2,1.38,0.41,2.07,0.66c0.35,0.14,0.77,0.32,1.12,0.5c0.34,0.21,0.71,0.4,1,0.64
					c1.25,0.91,2.24,1.97,3.19,3.01l2.77,3.13c1.85,2.02,3.82,3.94,6.23,5.23c2.4,1.29,5.16,1.91,7.94,2.02
					c-2.77,0.13-5.63-0.23-8.26-1.35c-2.64-1.12-4.9-2.95-6.97-4.85c-2.07-1.88-3.99-4-6.13-5.32c-0.26-0.18-0.54-0.27-0.8-0.41
					c-0.28-0.1-0.51-0.18-0.81-0.27c-0.64-0.16-1.29-0.31-1.96-0.43c-0.66-0.12-1.33-0.23-1.99-0.32l-0.49-0.06
					c-0.02,0,0.13,0.02,0.18,0.01c0.02,0-0.02,0-0.02,0l-0.07-0.01l-0.14-0.01l-0.28-0.02l-1.14-0.09
					c-2.76-0.24-5.35-0.15-8.04,0.16c-1.34,0.15-2.69,0.36-4.1,0.55c-0.7,0.1-1.43,0.18-2.16,0.25l-2.07,0.22l-16.55,1.76
					L343.07,743.99z"/>
			</g>
			<g>
				<path class="st1" d="M378.85,747.65c-0.3,0.92-0.49,1.86-0.53,2.82c-0.01,0.48-0.01,0.96,0.07,1.43
					c0.04,0.48,0.15,0.96,0.28,1.43c0.53,1.89,1.65,3.68,3.08,5.2c2.9,3.05,6.84,5.17,10.98,6.5c-4.27-0.86-8.51-2.5-12.01-5.42
					c-1.73-1.47-3.25-3.31-4.17-5.54c-0.22-0.56-0.43-1.13-0.55-1.73c-0.17-0.59-0.25-1.2-0.3-1.81c-0.1-1.23,0-2.46,0.25-3.65
					L378.85,747.65z"/>
			</g>
			<g>
				<path class="st1" d="M358.93,724.93c1.31-1.32,2.84-2.41,4.49-3.2c1.66-0.78,3.45-1.24,5.23-1.36c1.78-0.12,3.56,0.08,5.23,0.56
					c1.67,0.47,3.25,1.19,4.67,2.12c-3.08-1.4-6.55-1.89-9.69-1.19c-3.15,0.68-5.87,2.56-7.67,5.04L358.93,724.93z"/>
			</g>
			<g>
				<path class="st1" d="M334.22,705.2c5.16-1.46,10.69-1.1,15.42,0.9c-4.96-1.36-10.25-0.95-14.76,0.99L334.22,705.2z"/>
			</g>
		</g>
		<g>
			<path class="st0" d="M328.46,138.86c0.84-1.31,2.14-3.21,3.92-5.35c2.26-2.71,3.42-4.08,4.97-4.68c2.72-1.06,4.45,0.43,8.12,0.76
				c2.35,0.21,5.81-0.03,10.22-2.29c-0.71,2.38-1.81,5.53-3.53,9.08c-1.27,2.61-1.92,3.93-3.15,5.16c-3.88,3.86-9.39,3.65-9.84,3.63
				C332.5,144.82,328.85,139.46,328.46,138.86z"/>
			<path class="st0" d="M317.58,83.55c0.47-1.18-0.14-2.86-1.34-6.21c-1.36-3.78-2.04-5.68-3.63-6.69
				c-1.97-1.25-3.71-0.43-6.75-0.45c-2.67-0.01-6.36-0.67-10.83-3.5c0.95,4.22,1.66,7.53,2.08,9.57c1.06,5.02,1.29,6.45,2.67,7.97
				c2.24,2.47,5.58,2.68,7.44,2.82C310.28,87.3,316.28,86.84,317.58,83.55z"/>
			<path class="st0" d="M300.57,204.15c1.15-1.77,3.56-2.11,6.09-2.44c4.83-0.62,8.56,0.49,11.82,1.43
				c3.35,0.97,8.58,2.45,15.76,4.37c-1.4,1.54-3.57,3.78-6.45,6.23c-4.85,4.14-7.27,6.21-10.46,6.73
				c-6.86,1.13-12.34-4.3-12.75-4.73C301.75,212.86,298.54,207.28,300.57,204.15z"/>
			<path class="st0" d="M375.75,266.07c3.06-0.78,4.77-3.68,5.3-4.59c0.63-1.07,2.4-4.5,1.29-7.95c-1.13-3.51-4.2-3.8-7.95-7.74
				c-2.66-2.79-4.21-5.88-5.16-8.53c-1.44,1.19-4.26,3.87-5.8,8.24c-0.55,1.55-2.6,7.36,0.36,13.04
				C365.94,262.69,371.02,267.28,375.75,266.07z"/>
			<path class="st0" d="M384.57,217.52c-3.97,0.42-6.99-2.82-8.1-4.01c-3.67-3.94-3.99-8.85-4.01-10.6c2.31,1.3,5.06,2.42,8.24,2.94
				c3.52,0.58,5.18,0.03,6.88,1.43c1.97,1.62,3.1,5.1,1.65,7.59C387.88,217.17,385,217.48,384.57,217.52z"/>
			<path class="st0" d="M308.58,176.42c-0.41,2.31,1.12,4.22,1.72,4.97c2.16,2.69,6.16,4.27,9.93,3.15c3.32-0.99,5-3.63,5.45-4.39
				c-1.26-0.73-3.1-1.94-4.97-3.82c-2.68-2.7-2.85-4.18-4.59-4.68C313.42,170.86,309.16,173.1,308.58,176.42z"/>
			<path class="st0" d="M229.37,244.59c-2.58-2.1-5.16-4.2-7.74-6.3c0.06,0.83,0.16,1.98,0.29,3.34c0.44,4.68,0.65,5.19,1.05,5.64
				c1.56,1.71,5.48,1.76,6.5,0C229.96,246.41,229.66,245.3,229.37,244.59z"/>
			<path class="st0" d="M191.48,251.55c2.04,0.62,4.63-0.08,5.92-1.72c0.92-1.17,0.78-2.3,1.05-5.54c0.22-2.71,0.57-4.96,0.86-6.59
				c-1.57,1.2-3.95,2.66-7.07,3.25c-2.51,0.48-3.67,0.04-4.49,0.96C185.98,243.87,187.39,250.3,191.48,251.55z"/>
			<path class="st0" d="M161.7,268.56c1.57,0.34,3.05-0.97,3.65-1.5c2.66-2.34,3.47-6.69,1.93-10.03c-0.2-0.43-1.85-3.92-4.23-3.87
				c-2.58,0.06-4.46,4.26-4.73,7.38C158.06,263.7,159.22,268.03,161.7,268.56z"/>
			<path class="st0" d="M184.68,258.28c-0.81-0.56,0.1-2.08-1-3.37c-1.17-1.36-3.02-0.65-3.65-1.79c-0.54-0.98,0.06-2.9,1.22-3.44
				c1.64-0.76,3,1.92,7.81,3.15c1.35,0.35,1.97,0.32,2.15,0.79C191.8,255.19,186.24,259.35,184.68,258.28z"/>
			<path class="st0" d="M194.16,258.03c0.1-1.44,0.91-3.28,2.44-3.87c2.15-0.83,3.41,1.72,7.52,2.15c2.96,0.31,4.84-0.75,5.23,0
				c0.21,0.4-0.21,0.91-2.44,3.87c-2.2,2.91-2.24,3-2.58,3.22c-2.09,1.35-5.38,1.04-7.59-0.64
				C196.18,262.34,193.98,260.66,194.16,258.03z"/>
			<path class="st0" d="M186.71,266.18c-3.31-2.15-7.78-2.39-8.24-1.29c-0.22,0.53,0.65,0.98,2.44,3.22
				c2.87,3.6,2.81,5.17,4.37,5.59c1.85,0.49,4.55-1.01,4.87-2.94C190.5,268.64,187.84,266.92,186.71,266.18z"/>
			<path class="st0" d="M165.99,277.77c-1.03-0.77-0.22-3.5,0.36-4.87c1.54-3.65,5.12-6.35,6.23-5.66c0.63,0.39-0.09,1.52,0.64,4.01
				c0.55,1.86,1.22,2.16,1,3.01c-0.09,0.36-0.39,0.98-4.23,2.51C166.6,278.12,166.17,277.9,165.99,277.77z"/>
			<path class="st0" d="M156.69,273.15c-0.76-2.32,0.05-3.05-0.64-4.37c-1.33-2.51-5.97-3.11-9.39-2.15
				c-2.33,0.66-5.23,2.36-5.02,3.73c0.18,1.15,2.43,1.19,6.66,2.58c6.32,2.08,10.14,4.9,10.6,4.23
				C159.21,276.74,157.55,275.77,156.69,273.15z"/>
			<path class="st0" d="M158.55,273.87c-0.87-0.26-1.5,0.99-4.16,3.22c-3.25,2.72-4.6,2.76-4.73,4.01
				c-0.19,1.85,2.52,4.08,5.23,4.44c1.65,0.22,4.17-0.14,5.23-1.86c0.56-0.91,0.38-2.22,0-4.8
				C159.66,275.71,159.42,274.13,158.55,273.87z"/>
			<path class="st0" d="M169.01,293.64c-0.9-2.21-3.24-3.09-4.37-3.51c-0.62-0.23-4.89-1.76-9.03,0.64c-1.73,1-2.76,2.31-3.3,3.08
				c1,0.4,2.47,1.11,3.94,2.36c2.02,1.73,1.94,2.69,3.51,3.8c1.98,1.4,5.5,2.29,7.67,0.57c1.83-1.45,1.92-4.16,1.93-4.59
				C169.39,295.5,169.41,294.61,169.01,293.64z"/>
			<path class="st0" d="M175.72,285.02c-0.3-0.91,0.61-1.88,1.79-3.15c1.01-1.09,3.2-3.43,4.23-2.87c0.8,0.44,0.55,2.41,0.21,3.51
				c-0.44,1.44-1.72,3.71-3.73,3.8C177.26,286.35,176,285.89,175.72,285.02z"/>
			<path class="st0" d="M180.76,293.57c1.38-1.44,2.55-1.09,3.22-2.22c0.87-1.45-0.51-2.93,0.21-3.65c0.89-0.88,4.19,0.07,5.66,2.44
				c0.75,1.21,1.38,3.35,0.43,4.44c-1.02,1.17-2.75-0.13-6.52,0.64c-2.48,0.51-3.83,1.5-4.23,1
				C179.18,295.76,179.94,294.42,180.76,293.57z"/>
			<path class="st0" d="M182.19,308.97c-3.29-1.33-6.78,0.83-8.38,2.72c-1.62,1.91-1.07,3.25-2.72,5.45
				c-1.61,2.14-3.89,3.18-5.59,3.73c0.45,0.83,1.36,2.27,3.01,3.44c3.21,2.27,7.56,2.34,10.75,0.72c1.76-0.9,2.77-2.11,3.94-3.51
				c1.66-1.98,3-3.59,3.08-5.88C186.37,313.13,184.92,310.08,182.19,308.97z"/>
			<path class="st0" d="M218.09,322.87c-2.59-0.83-4.96,0.24-7.59,1.43c-2.83,1.28-4.7,2.83-5.95,3.87
				c-2.24,1.87-3.83,3.73-4.87,5.09c1.55,0.09,3.89,0.37,6.52,1.36c3.86,1.46,4.85,3.12,7.31,2.94c2.87-0.22,4.82-2.75,5.73-3.94
				c0.51-0.66,3.92-5.1,2.08-8.38C220.4,323.61,218.64,323.05,218.09,322.87z"/>
			<path class="st0" d="M198.24,296.22c1.03-1.9,2.25-2.69,3.87-4.08c3.72-3.22,4.11-4.97,5.37-4.73c1.46,0.27,2.1,2.81,2.36,3.87
				c0.19,0.76,1.14,4.95-0.93,6.59c-1.25,0.99-2.2-0.05-6.02,0.43c-3.14,0.39-4.73,1.37-5.3,0.64
				C197.11,298.32,197.83,296.98,198.24,296.22z"/>
			<path class="st0" d="M215.76,300.42c0.97-0.39,2.43,0.83,5.3,3.3c2.97,2.55,4.45,3.84,4.16,4.8c-0.39,1.26-3.2,1.58-5.09,1.29
				c-0.81-0.12-4.2-0.77-5.37-3.73C213.91,303.94,214.38,300.98,215.76,300.42z"/>
			<path class="st0" d="M192.78,280.77c0.53,1.46,2.87,1.72,3.51,1.79c2.22,0.25,3.98-0.61,5.66-1.43c1.01-0.49,2.46-1.32,4.01-2.65
				c-2.49-0.33-4.26-1.11-5.45-1.79c-1.33-0.77-1.7-1.29-2.72-1.36c-1.9-0.13-3.64,1.5-4.44,2.94
				C192.97,278.95,192.45,279.87,192.78,280.77z"/>
			<path class="st0" d="M223.31,281.77c-1.26,0.76-4-1.45-5.45-3.25c-1.5-1.87-3.02-5.09-2.01-6.11c1.05-1.06,4.81,0.2,6.69,2.77
				C224.22,277.47,224.55,281.02,223.31,281.77z"/>
			<path class="st0" d="M227.65,264.35c0.38,1.74,2.36,2.86,3.92,2.77c1.08-0.06,1.52-0.69,2.96-1.43c1.6-0.82,3.19-1.14,4.59-1.24
				c-2.09-1.19-3.67-2.35-4.78-3.25c-1.15-0.92-1.53-1.36-2.29-1.43C230.09,259.57,227.1,261.88,227.65,264.35z"/>
			<path class="st0" d="M225.68,294.57c0.1-1.32,2.5-1.67,6.16-3.51c3.99-2.01,6.8-4.45,8.53-6.16c0.42,1.65,0.81,3.98,0.57,6.73
				c-0.21,2.47-0.36,4.25-1.72,5.59c-1.88,1.85-4.76,1.57-6.16,1.43C229.61,298.32,225.55,296.32,225.68,294.57z"/>
			<path class="st0" d="M262.27,286.83c0.32-1.67,2.2-2.21,4.2-3.53c2.67-1.76,5.8-5.07,7.83-11.85c1.1,1.85,2.57,4.77,3.44,8.6
				c1,4.39,1.79,7.84-0.29,10.6c-1.93,2.57-5.64,3.62-8.79,2.87C265.07,292.65,261.79,289.32,262.27,286.83z"/>
			<path class="st0" d="M288.45,246.78c0.26,0.53,0.83,1,4.44,1.65c5.11,0.92,7.67,1.39,9.53,0.64c4.58-1.82,5.9-7.63,6.09-8.53
				c-1.77-0.77-4.57-1.73-8.1-1.93c-2.55-0.15-4.99-0.29-7.45,1.07C289.99,241.34,287.52,244.9,288.45,246.78z"/>
			<path class="st0" d="M321.12,104.86c-0.04-2.49,3.51-4.57,6.4-4.97c2.38-0.33,3.46,0.59,6.4,1.15c2.19,0.42,5.39,0.62,9.55-0.48
				c-3.02,2.6-5.78,4.34-7.74,5.45c-4.45,2.51-7.29,4.06-10.32,3.15C323.42,108.55,321.15,106.83,321.12,104.86z"/>
			<path class="st0" d="M321.98,80.06c-0.79,1.74,2.07,5.47,5.59,6.59c3.45,1.1,6.59-0.6,7.74-1.22c2.7-1.46,4.16-3.58,4.8-4.66
				c-2.08-0.63-5.22-1.41-9.1-1.72C326.8,78.72,322.74,78.39,321.98,80.06z"/>
			<path class="st0" d="M431.83,56.71c0.65,0.34,2.88,1.44,5.73,0.86c3.58-0.73,5.35-3.53,5.64-4.01c-1.31-0.69-4.09-1.91-6.4-0.86
				c-1.03,0.47-2.23,1.5-3.25,2.39C432.81,55.73,432.22,56.31,431.83,56.71z"/>
			<path class="st0" d="M444.73,80.11c-0.22-2.23,2.26-4.9,4.87-5.35c3.12-0.54,4.59,2.4,9.84,3.73c2.46,0.62,4.62,0.6,6.11,0.48
				c-0.6,0.99-2.22,3.37-5.35,4.87c-3.76,1.81-7.19,1.16-8.22,0.96C451.11,84.61,445.06,83.38,444.73,80.11z"/>
			<path class="st0" d="M439.29,79.15c0.48-0.82,2.02-3.64,1.15-6.88c-0.51-1.87-1.92-4.25-3.15-4.11c-0.79,0.09-1,1.17-2.77,5.92
				c-1.47,3.94-1.94,4.82-1.43,5.45c1.02,1.27,4.69-0.16,5.25-0.38"/>
			<path class="st0" d="M250.98,360.38c-0.74-3.24-4.28-5.24-7.16-5.35c-1.47-0.06-2.17,0.4-6.88,2.48
				c-2.57,1.13-4.67,2.02-6.02,2.58c1.36,0.58,3.43,1.62,5.54,3.44c2.93,2.53,3.02,4.05,5.06,4.78c2.81,0.99,6.93-0.36,8.69-3.44
				C250.47,364.42,251.48,362.59,250.98,360.38z"/>
			<path class="st0" d="M146.87,354.85c-0.23,0.75-0.23,2.04,2.58,5.35c2.89,3.41,4.34,5.12,6.3,5.35c2.76,0.32,6.24-1.39,6.97-4.2
				c1.04-3.97-4.16-7.21-4.87-7.64c-2.94-1.77-7.11-2.29-9.65-0.48C147.8,353.52,147.13,354,146.87,354.85z"/>
			<path class="st0" d="M168.17,378.25c-3.09-0.63-4.88-5.21-3.73-7.07c0.89-1.44,2.99-0.32,5.64-2.1c2.71-1.82,2.8-4.52,3.92-4.39
				c1.22,0.14,2.18,3.48,1.72,6.3c-0.07,0.45-0.37,2-1.53,3.63C173.64,375.4,171.17,378.86,168.17,378.25z"/>
			<path class="st0" d="M182.79,373.57c-0.22,1.02,2.28,1.37,4.97,4.59c2.84,3.41,2.45,5.9,4.2,6.3c2.03,0.47,5.35-2.25,5.45-5.35
				c0.1-3.26-3.4-5.19-4.39-5.73C188.75,371.04,183.11,372.1,182.79,373.57z"/>
			<path class="st0" d="M159.77,389.34c0.3-0.99,0.96-3.6-0.1-6.5c-1.36-3.71-5.13-6.78-8.6-6.59c-3.11,0.17-4.65,2.89-8.12,2.29
				c-1.34-0.23-2.05-1.11-2.29-0.86c-0.46,0.48,1.98,3.71,4.3,6.11c2.35,2.44,4.1,4.24,7.07,5.25c2.78,0.94,5.29,0.74,6.78,0.48"/>
			<path class="st0" d="M140.57,369.18c0.27-0.2,3.29-2.43,2.87-5.64c-0.4-3.04-3.56-4.52-3.92-4.68c-2.56-1.15-4.15,0.07-5.92-1.15
				c-1.49-1.03-1.96-2.99-2.1-4.59c-0.73,1.95-1.77,5.67-0.67,9.93c0.46,1.76,1.7,6.6,5.16,7.36
				C138.17,370.9,140.12,369.5,140.57,369.18z"/>
			<path class="st0" d="M137.61,384.66c0.12-1.2,0.31-2.95-0.67-4.78c-1.62-3.03-5.04-3.64-5.54-3.73c-3.77-0.61-6.51,1.77-6.88,2.1
				c0.93,0.4,2.21,1.13,2.87,2.48c1.23,2.55-1.09,4.66-0.1,7.07c0.99,2.41,4.89,4.13,7.45,2.87
				C137.1,389.51,137.44,386.26,137.61,384.66z"/>
			<path class="st0" d="M154.99,406.15c-0.04-2.52-2.96-4.31-4.78-4.97c-3.06-1.11-5.9-0.44-7.55,0c-2.85,0.76-2.82,1.58-5.25,2.24
				c-4.92,1.35-8.65-1.02-9.08-0.14c-0.44,0.9,3.29,3.95,7.14,5.85c4.67,2.31,8.5,2.55,10.1,2.58c2.45,0.04,4.93,0.05,7.07-1.65
				C153.18,409.64,155.03,408.18,154.99,406.15z"/>
			<path class="st0" d="M157.19,406.91c-0.71-1.89-0.83-3.33-0.86-3.94c-0.06-1.24-0.22-4.35,1.07-4.94
				c1.33-0.61,4.04,1.52,5.23,4.01c2,4.22-0.13,9.96-1.86,10.1C159.21,412.27,157.56,407.89,157.19,406.91z"/>
			<path class="st0" d="M169.51,401.18c0-1.16,1.8-1.34,4.73-3.58c3.9-2.98,4.39-5.45,6.09-5.23c1.65,0.21,3.13,2.81,2.94,4.87
				c-0.15,1.57-1.16,1.74-1.79,4.01c-0.66,2.38,0.14,3.31-0.64,4.08c-1.15,1.13-3.82,0.13-6.09-0.72
				C172.45,403.76,169.51,402.66,169.51,401.18z"/>
			<path class="st0" d="M193.68,410.78c-2.28-1.62-2.51-6.03-0.76-8.55c1.43-2.07,3.37-1.69,6.45-3.82c2.6-1.8,4.13-4.09,5.02-5.73
				c0.99,1.7,2.14,4.33,2.29,7.64c0.1,2.2,0.24,5.05-1.67,7.4c-1.54,1.9-3.63,2.51-5.16,2.96
				C197.75,411.3,195.39,411.99,193.68,410.78z"/>
			<path class="st0" d="M181.26,421.74c0.34-3.74,0.53-5.62,1.36-6.09c1.59-0.89,4.87,0.52,5.45,2.79c0.44,1.72-0.85,3.25-1.79,4.37
				c-1.36,1.61-3.78,3.4-4.8,2.72C181.19,425.35,180.97,424.94,181.26,421.74z"/>
			<path class="st0" d="M241.02,405.77c-1.38-2.5-3.83-3.41-4.59-3.65c-2.28-0.73-2.96,0.21-6.52,0c-4.13-0.24-5.76-1.66-6.45-0.86
				c-0.26,0.3-0.52,1.06,3.3,7.59c3.21,5.5,4.03,6.05,4.66,6.38c2.66,1.37,7.13,1.34,9.39-1.65
				C242.62,411.16,242.18,407.87,241.02,405.77z"/>
			<path class="st0" d="M194.54,429.84c0.7,1.7,4.78,1.35,6.11,1.24c1.55-0.13,4.7-0.44,7.16-2.87c1.23-1.21,2.86-3.5,2.2-4.49
				c-0.45-0.67-1.61-0.25-6.4,0.29c-3.97,0.44-4.54,0.3-5.73,0.96C195.88,426.07,193.96,428.43,194.54,429.84z"/>
			<path class="st0" d="M237.82,435.33c0.71-1.49,0.91-3.79-0.19-5.16c-1.42-1.76-3.8-0.5-6.02-2.39c-1.09-0.93-1.58-2.14-1.82-2.96
				c-0.42,1.19-0.98,3.16-0.96,5.64c0.02,2.29,0.04,4.08,1.34,5.45c1.65,1.73,4.86,2.23,6.59,0.86
				C237.35,436.3,237.62,435.73,237.82,435.33z"/>
			<path class="st0" d="M212.93,445.96c2.31-0.52,3.94-2.66,4.23-4.66c0.17-1.17-0.15-2.06-2.01-5.52c-0.91-1.7-2.16-3.96-3.73-6.59
				c-0.23,3.52-1.37,5.64-2.44,6.95c-1.08,1.33-1.82,1.5-2.22,2.72c-0.75,2.26,0.44,5.65,3.08,6.81
				C211.25,446.29,212.55,446.05,212.93,445.96z"/>
			<path class="st0" d="M231.03,453.03c-1.86-2.11-6.39-1.11-7.16,0.86c-0.35,0.89,0.12,1.84,0.72,3.01
				c0.26,0.52,2.4,4.74,4.66,4.23c1.32-0.3,2.31-2.15,2.51-4.37C231.83,456.36,232.21,454.36,231.03,453.03z"/>
			<path class="st0" d="M200.32,455.49c2.75-0.12,3.65-0.85,5.02-0.21c1.12,0.53,1.71,1.46,2.15,2.15c0.66,1.04,1.84,3.47,1,4.37
				c-0.85,0.92-2.7-0.91-6.02-0.5c-2.64,0.32-3.16,1.7-4.66,1.29c-2.43-0.66-4.04-5.09-2.79-6.59
				C195.5,455.41,196.07,455.67,200.32,455.49z"/>
			<path class="st0" d="M176.34,425.1c0.21,1.59-3.06,3.65-6.11,3.92c-3.66,0.32-7.68-1.89-7.55-3.63c0.15-1.91,5.25-2.93,5.92-3.06
				C172.94,422.49,176.15,423.63,176.34,425.1z"/>
			<path class="st0" d="M188.63,446.6c-0.2-1.62-1.6-3.18-3.15-3.44c-1.49-0.25-2.31,0.86-5.35,2.2c-1.59,0.7-2.98,1.1-3.92,1.34
				c1.52,3.63,4.85,5.63,7.74,5.06C186.23,451.32,188.94,449.13,188.63,446.6z"/>
			<path class="st0" d="M148.97,496.81c2.19-2.55,1.98-6.22,0.96-8.6c-1.23-2.86-3.4-3.26-6.78-6.5c-2.79-2.66-4.47-5.41-5.45-7.26
				c-1.38,1.99-4.25,6.75-3.82,12.99c0.18,2.61,0.59,8.71,5.16,10.99C141.97,499.89,146.49,499.7,148.97,496.81z"/>
			<path class="st0" d="M171.79,486.49c-0.28-2.22,1.14-3.88,1.91-4.78c1.37-1.6,4.58-4.18,6.97-2.96c1.94,0.99,2.25,3.92,2.1,5.54
				c-0.29,3.15-2.82,7.15-6.21,6.88C174.28,490.99,172.09,488.91,171.79,486.49z"/>
			<path class="st0" d="M165.55,470.82c0.31-2,2.19-2.76,6.02-5.83c1.56-1.25,2.75-2.32,3.44-2.96c1.41,3.93,0.93,7.94-1.43,10.22
				c-1.84,1.78-5.38,3.06-7.07,1.62C165.67,473.17,165.38,471.87,165.55,470.82z"/>
			<path class="st0" d="M163.21,462.32c1.81,0.78,5.5-1.89,6.02-5.25c0.46-3.03-1.67-6.5-3.63-6.5c-2.01,0.01-3.54,3.69-3.82,6.3
				C161.75,457.09,161.32,461.51,163.21,462.32z"/>
			<path class="st0" d="M149.26,475.5c0.47-1.67,3.49-1.06,5.16-3.53c1.35-2,0.54-4.11,1.05-4.2c0.8-0.15,4.02,4.9,2.01,8.88
				c-0.21,0.42-1.76,3.35-4.39,3.15C150.71,479.62,148.83,477.02,149.26,475.5z"/>
			<path class="st0" d="M150.02,502.52c-0.13-1.11,2.66-1.31,4.59-3.92c2.23-3.02,1.11-6.31,2.01-6.5c1.13-0.23,4.65,4.62,2.87,8.5
				c-0.89,1.93-2.89,3.2-4.87,3.44C152.59,504.29,150.14,503.53,150.02,502.52z"/>
			<path class="st0" d="M156.27,508.27c-0.9-2.39-6.6-3.02-8.22-0.96c-0.41,0.53-0.34,0.95-0.38,3.73
				c-0.08,5.06-0.36,5.75,0.19,6.11c1.31,0.86,4.75-1.85,6.69-4.49C155.63,511.2,156.78,509.62,156.27,508.27z"/>
			<path class="st0" d="M178.44,498.36c-1.46-0.77-3.28,0.29-4.59,1.05c-0.88,0.51-4.82,2.81-4.3,5.35
				c0.45,2.19,4.07,3.78,6.88,2.77c2.67-0.96,3.4-3.84,3.44-4.01C180.27,501.86,180.08,499.23,178.44,498.36z"/>
			<path class="st0" d="M176.23,522.89c-1.78-1.23-3.66,0.91-7.64,0.29c-3-0.47-4.23-2.05-4.78-1.53c-0.83,0.79,0.96,5.51,4.78,7.36
				c2.82,1.37,7.37,1.45,8.69-1.05C178.1,526.39,177.66,523.87,176.23,522.89z"/>
			<path class="st0" d="M383.59,144.83c-0.25-1.14-1.02-4.74-3.44-5.3c-2.41-0.57-5.39,2.14-5.88,4.87
				c-0.79,4.51,5.22,9.16,7.74,8.17C383.96,151.8,384.18,147.54,383.59,144.83z"/>
			<path class="st0" d="M396.62,122.99c-2.11,0.91-4.63,0.25-6.16-1c-1.76-1.44-1.31-2.89-2.87-6.88c-2.04-5.23-4.29-6.5-3.58-7.74
				c0.96-1.7,6.31-1.35,10.03,1.15c4.29,2.88,6.91,8.93,5.02,12.32C398.27,122.25,396.9,122.87,396.62,122.99z"/>
			<path class="st0" d="M415.4,109.01c1.38-2.47,7.52-2.27,8.74,0.29c1.09,2.28-1.52,6.83-4.59,6.73
				C416.49,115.93,414.17,111.21,415.4,109.01z"/>
			<path class="st0" d="M398.88,137.81c2.13-0.73,3.7,2.85,7.45,2.77c3.03-0.06,4.81-2.44,5.35-1.91c0.54,0.54-0.8,3.53-3.25,5.35
				c-3.57,2.66-9.79,3.08-11.46,0.29C395.74,142.26,396.95,138.47,398.88,137.81z"/>
			<path class="st0" d="M392.05,162.89c0.24-0.35,2.03,1.44,5.02,1.43c4.49-0.01,7.03-4.08,7.88-3.44c0.93,0.7-0.49,6.67-4.3,7.74
				C396.18,169.87,391.63,163.49,392.05,162.89z"/>
			<path class="st0" d="M439.76,161.09c-2.2,2.12-7.5-0.15-8.26-0.48c-1.46-0.63-4.5-1.93-5.54-4.78c-0.87-2.37,0.53-3.38-0.19-6.54
				c-0.77-3.35-2.82-4.36-2.34-5.21c0.84-1.49,8.41-0.62,13.04,4.25C440.15,152.22,442.12,158.81,439.76,161.09z"/>
			<path class="st0" d="M442.92,141.02c-0.91-0.31-2.23-0.81-3.76-1.56c-1.95-0.95-2.93-1.45-3.52-2.29
				c-1.03-1.47-0.39-2.72-0.72-4.96c-0.22-1.44-0.86-3.46-2.85-5.77c1.52,0.08,3.56,0.28,5.93,0.79c1.74,0.38,2.63,0.58,3.54,1.13
				c2.87,1.75,3.54,5.08,3.6,5.35C445.89,137.75,443.23,140.7,442.92,141.02z"/>
			<path class="st0" d="M446.85,106.96c-0.48,0.83-1.21,2.03-2.24,3.4c-1.3,1.73-1.97,2.6-2.91,3.02c-1.64,0.73-2.74-0.13-5.01-0.23
				c-1.45-0.06-3.56,0.19-6.2,1.71c0.37-1.48,0.95-3.45,1.9-5.68c0.7-1.64,1.06-2.47,1.78-3.26c2.26-2.48,5.65-2.52,5.93-2.52
				C444.2,103.43,446.59,106.61,446.85,106.96z"/>
			<path class="st0" d="M477.59,110.23c1.78-2.39,0.55-5.61,0.38-6.02c-1.27-3.17-4.78-5.09-8.02-4.97
				c-3.25,0.12-6.43,2.29-6.21,3.53c0.24,1.36,4.28,0.22,7.16,3.06c2.49,2.45,2,5.79,3.82,6.11
				C476.12,112.2,477.43,110.44,477.59,110.23z"/>
			<path class="st0" d="M488.67,82.88c1.32-1.13,2.23-3.14,1.72-4.78c-0.58-1.86-2.48-1.53-4.59-4.11c-1.7-2.08-1.54-3.6-2.29-3.63
				c-1.35-0.06-3.74,4.74-2.39,8.88c0.64,1.97,2.46,4.77,4.87,4.78C487.33,84.03,488.33,83.18,488.67,82.88z"/>
			<path class="st0" d="M525.81,27.69c1.94,1.61,4.95,2.58,7.67,1.79c4.02-1.17,6.38-5.9,6.38-9.67c-0.01-3.91-2.56-4.77-2.22-8.45
				c0.4-4.34,4.2-5.91,3.51-7.45c-0.94-2.1-9.49-2.43-14.54,2.15C520.55,11.54,520.43,23.22,525.81,27.69z"/>
			<path class="st0" d="M545.08,39.8c-2.03-0.63-4.98-2.45-5.16-4.94c-0.13-1.76,1.24-2.36,4.66-6.66c3.63-4.57,4-6.3,5.16-6.16
				c1.62,0.19,1.95,4.96,2.22,8.6c0.03,0.44-0.19,2.7-0.64,7.24c-0.03,0.33-0.09,0.83-0.43,1.29
				C549.78,40.66,546.8,40.33,545.08,39.8z"/>
			<path class="st0" d="M557.98,31.92c0.01-0.03,0.03-0.09,0.05-0.15c0,0,1.14-3.39,3.75-6.08c3.37-3.49,11.6-6.04,12.61-4.37
				c0.86,1.44-3.6,5.97-7.52,8.53c-2.59,1.69-5.05,2.58-6.81,3.08"/>
			<path class="st0" d="M555.54,40.73c2.21-0.83,4.31-0.67,5.02,0.36c0.94,1.37-0.67,4.23-2.87,5.3c-1.36,0.67-3.85,1.09-5.23-0.5
				c-1.38-1.58-1.08-4.47,0.43-5.37c0.25-0.15,0.9-0.46,2.01-0.21"/>
			<path class="st0" d="M520.29,106.38c0.08-4.35-4.09-7.18-7.16-9.27c-1.43-0.97-6.81-4.62-8.79-2.96
				c-1.94,1.62,0.5,7.4,1.91,10.03c0.47,0.88,5.4,9.83,10.03,8.6C518.67,112.14,520.24,108.98,520.29,106.38z"/>
			<path class="st0" d="M508.61,139.24c0.82-0.88-1.41-4.17-2.65-5.73c-1.11-1.39-4.03-5.06-5.88-4.3c-1.53,0.63-2.12,4.24-0.72,6.3
				c0.55,0.81,1.66,1.29,3.87,2.22C506.48,139.11,508.11,139.79,508.61,139.24z"/>
			<path class="st0" d="M516.78,123.48c-2.35,1.58-6.47,0.88-7.16-1.15c-0.47-1.39,0.69-3.33,2.22-4.08
				c2.67-1.31,6.44,0.99,6.52,2.94C518.41,122.39,517.06,123.3,516.78,123.48z"/>
			<path class="st0" d="M548.16,125.06c0.82-1.77-0.28-4.27-1.58-5.66c-2.15-2.31-5.37-2.11-5.8-2.08c-2.57,0.2-3.22,1.68-5.02,1.29
				c-2.27-0.5-2.8-3.21-3.65-3.01c-1.18,0.28-2.3,5.98,0.36,9.39C536.22,129.79,546.46,128.71,548.16,125.06z"/>
			<path class="st0" d="M558.89,102.73c-1,1.1-5.67-0.14-7.36-3.44c-1.44-2.82-0.51-6.76,0.96-7.16c1.85-0.51,4.64,4.57,5.73,7.16
				C558.9,100.9,559.42,102.14,558.89,102.73z"/>
			<path class="st0" d="M575.9,86.24c-1.72-0.09-4.35-0.9-4.78-2.58c-0.28-1.09,0.63-1.6,1.72-4.01c1.65-3.63,0.88-5.28,2.1-5.92
				c1.61-0.84,4.79,1.08,6.21,3.63c0.21,0.38,2.1,3.91,0.1,6.69C579.53,86.43,576.38,86.26,575.9,86.24z"/>
			<path class="st0" d="M604.35,75.22c-2.58-0.36-4.73-2.96-4.54-5.06c0.17-1.91,2.14-2.01,3.13-4.39c1.52-3.64-1.58-6.99-0.48-7.88
				c1.15-0.93,5.96,1.59,7.85,5.84c0.35,0.79,1.68,3.75,0.34,6.89C609.81,72.6,607.49,75.66,604.35,75.22z"/>
			<path class="st0" d="M622.03,64.44c-1.96,1.18-5.19,0.02-6.69-2.1c-1.48-2.09-0.94-4.64-0.76-5.35c0.65-2.55,2.26-2.7,2.77-5.16
				c0.55-2.63-0.9-4.36-0.29-4.78c0.77-0.52,3.72,1.74,5.45,4.68c0.29,0.49,2.41,4.25,1.43,8.88
				C623.61,62.18,623.3,63.68,622.03,64.44z"/>
			<path class="st0" d="M630.15,60.69c-3.09-1.18-4.49-5.08-3.53-7.36c0.46-1.11,1.15-1.06,4.3-3.25c3.64-2.54,4.43-3.8,5.35-3.44
				c1.14,0.45,1.14,2.88,1.15,5.35c0,3.81,0.01,6.48-2.01,8.02C633.94,61.15,631.83,61.34,630.15,60.69z"/>
			<path class="st0" d="M604.35,92.44c-1.14-1.39-1.34-3.36-0.67-4.78c0.62-1.31,1.64-1.42,4.68-3.06c4.28-2.3,5.35-3.75,6.11-3.25
				c1.15,0.75-0.25,4.68-0.76,6.11c-1.12,3.14-2.08,5.84-4.49,6.5C607.7,94.39,605.62,93.97,604.35,92.44z"/>
			<path class="st0" d="M600.44,97.88c-0.64,0.32-2.79,1.53-3.25,3.82c-0.66,3.27,2.66,6.05,3.53,6.78
				c5.02,4.21,12.8,3.42,13.18,2.01c0.26-0.97-3.14-1.51-4.49-4.87c-1.13-2.81,0.49-4.31-0.76-6.21
				C607.23,97.25,603.32,96.44,600.44,97.88z"/>
			<path class="st0" d="M568.54,126.44c-1.05-0.94,0.01-3.93,0.96-5.64c1.62-2.94,3.39-2.94,6.59-6.21
				c3.57-3.65,3.69-6.01,5.16-5.92c2.1,0.12,4.6,5.12,3.25,8.79c-0.25,0.67-0.85,1.91-7.07,5.45
				C572.19,125.88,569.55,127.35,568.54,126.44z"/>
			<path class="st0" d="M591.34,128.2c1.87-2.07,6.11-0.78,6.78-0.57c0.97,0.3,4.78,1.62,5.73,4.78c0.78,2.57-1.04,4.02,0,5.83
				c1.31,2.27,5.27,1.85,5.25,2.39c-0.02,0.52-3.79,1.34-8.02,0.57c-2.21-0.4-5.22-0.95-7.55-3.44
				C591.11,135.15,589.37,130.39,591.34,128.2z"/>
			<path class="st0" d="M567.77,131.7c1.89-0.06,4.35,1.1,4.59,3.06c0.22,1.84-1.66,3.38-3.15,3.92c-2.48,0.89-5.88-0.3-6.3-2.29
				C562.47,134.37,565.08,131.78,567.77,131.7z"/>
			<path class="st0" d="M520.99,185.12c-0.62-1.71-0.08-3.78,1.24-4.68c2.27-1.54,6.66,0.53,6.88,3.34c0.13,1.68-1.2,3.65-3.25,4.11
				C523.75,188.36,521.68,187.02,520.99,185.12z"/>
			<path class="st0" d="M538.68,196.26c-0.97-1.46-1.76-3.99-0.67-5.73c1.06-1.7,2.8-0.88,5.54-2.77c2.91-2.01,3.07-4.41,4.49-4.3
				c1.48,0.12,2.68,2.85,2.77,5.06c0.08,2.1-0.84,3.6-2.1,5.64c-1.73,2.8-2.94,4.75-5.06,4.97
				C541.47,199.35,539.58,197.63,538.68,196.26z"/>
			<path class="st0" d="M567.17,194.76c-2.05-0.16-3.21-2.5-3.44-2.96c-1.27-2.56-0.36-5.22-0.1-5.92c0.65-1.69,1.29-1.55,2.58-4.11
				c1.05-2.09,0.97-2.88,1.62-3.06c1.62-0.45,4.05,3.89,4.49,4.68c1.05,1.88,1.66,2.97,1.53,4.49c-0.18,2.03-1.55,3.39-2.77,4.59
				C569.73,193.8,568.64,194.87,567.17,194.76z"/>
			<path class="st0" d="M587.67,192.94c-0.15-0.13-0.36-0.32-0.58-0.58c-0.05-0.07-0.86-1.08-0.95-2.28
				c-0.1-1.31,0.67-2.31,1.34-3.15c0.6-0.76,1.24-1.31,3.73-2.87c3.91-2.45,4.36-2.35,4.59-2.2c0.5,0.35,0.18,1.19,0,3.63
				c-0.3,4.06,0.35,4.8-0.38,6.11c-0.37,0.67-1.44,2.07-4.78,2.58"/>
			<path class="st0" d="M609.66,195.24c-0.01-0.02-0.02-0.05-0.03-0.09c-0.46-1.72-0.26-3.73,0.46-4.97
				c0.47-0.81,0.97-0.97,4.01-2.44c4.92-2.37,5.56-2.91,6.54-2.48c1.4,0.61,2,2.53,2.01,3.87c0.01,1.86-1.13,3.14-2.63,4.82
				c-0.83,0.94-2.23,2.3-4.35,3.53"/>
			<path class="st0" d="M642.28,195.71c-0.43-0.49-2.24-2.55-1.62-4.39c0.49-1.48,2.16-1.65,5.45-3.06
				c5.77-2.48,7.36-4.84,8.69-4.01c1.4,0.87,0.77,4.17,0.48,5.73c-0.5,2.64-1.31,6.94-4.97,8.22
				C647.31,199.24,644.03,197.7,642.28,195.71z"/>
			<path class="st0" d="M638.18,201.14c2.23,0.86,3.89,3.66,2.87,5.73c-0.82,1.66-3.09,2.28-4.78,1.82
				c-2.67-0.73-4.39-4.27-3.15-6.3C634.04,200.87,636.43,200.47,638.18,201.14z"/>
			<path class="st0" d="M598.72,210.03c0.18-1.21,3.59-0.61,5.54-3.06c1.24-1.56,0.69-2.85,1.72-3.34c1.8-0.86,5.77,2,5.45,4.01
				c-0.05,0.29-0.22,0.77-2.87,2.29c-3.32,1.91-5.02,2.86-6.78,2.48C600.21,212.09,598.59,210.9,598.72,210.03z"/>
			<path class="st0" d="M607.73,218.91c0.13-0.31,0.56-1.12,4.59-2.2c4.89-1.31,7.33-1.96,9.55-0.96c3.06,1.39,2.18,4.08,5.45,6.78
				c4.48,3.7,10.22,1.99,10.41,3.25c0.2,1.3-5.84,4.14-12.42,4.3c-1.92,0.05-8.32,0.11-13.47-4.2
				C611.37,225.5,606.67,221.48,607.73,218.91z"/>
			<path class="st0" d="M579.83,248.16c-0.32-0.92,2.75-1.98,2.77-4.3c0.01-1.36-1.04-1.64-1.34-3.06c-0.56-2.69,2.42-5.44,4.3-7.16
				c2.79-2.57,5.33-4.92,7.45-4.2c3.14,1.06,4.68,8.64,1.72,13.47c-1.85,3.03-4.98,4.17-6.88,4.87
				C584.23,249.11,580.18,249.16,579.83,248.16z"/>
			<path class="st0" d="M579.6,198.78L579.6,198.78c-0.34-0.07-3.63-0.72-6.02,1.53c-1.81,1.7-1.95,3.98-2.01,4.87
				c-0.06,1.03-0.16,2.56,0.86,3.92c0.89,1.19,2.68,2.31,4.01,1.82c1.21-0.45,1.24-1.95,2.58-4.68c0.92-1.89,1.94-3.3,2.67-4.2"/>
			<path class="st0" d="M546.45,202.73c-1.26,0.14-2.19,1.66-4.01,4.7c-2.07,3.48-3.1,5.24-2.48,6.59c0.9,1.98,4.11,2.19,4.3,2.2
				c1.6,0.08,2.78-0.51,3.63-0.96c0.97-0.5,3.93-2.04,4.3-4.97c0.22-1.71-0.56-3.07-1.05-3.92
				C550.94,206.02,548.88,202.46,546.45,202.73z"/>
			<path class="st0" d="M505.02,180.61c-0.18,0.01-0.43,0.03-0.73,0.06c-0.56,0.07-2.53,0.37-4.43,1.65
				c-2.99,2.03-3.85,5.19-4.01,5.83c-0.1,0.4-0.94,3.89,0.29,4.59c0.89,0.5,1.83-1.01,4.59-2.01c3.52-1.27,5.51-0.07,6.69-1.43
				c0.55-0.64,1-1.94,0-4.87"/>
			<path class="st0" d="M451.32,191.69c1.76,0.64,2.06,1.76,3.92,3.53c3.43,3.3,7.09,3.97,6.88,4.68c-0.18,0.59-2.6-0.38-5.16,1.05
				c-1.27,0.71-1.41,1.36-2.29,1.43c-1.15,0.1-2.11-0.88-4.01-3.25c-3.17-3.93-4.75-5.91-4.3-6.78
				C446.95,191.19,449.5,191.03,451.32,191.69z"/>
			<path class="st0" d="M421.62,207.17c1.73-0.65,3.31,0.08,4.59,0.67c1.55,0.71,4.78,2.69,4.39,4.59
				c-0.26,1.29-2.06,1.91-3.15,2.29c-0.83,0.29-3.56,1.24-6.02-0.29c-0.4-0.25-2.79-1.73-2.58-4.01
				C419,208.77,420.43,207.61,421.62,207.17z"/>
			<path class="st0" d="M400.1,228.06c1.97-1.93,5.37-1.44,7.26-0.57c1.97,0.9,2,2.07,3.92,2.67c2.84,0.9,5.5-0.81,5.64-0.48
				c0.13,0.32-2.57,1.27-5.54,3.63c-2.67,2.12-2.73,3.14-4.68,3.92c-0.7,0.28-3.57,1.29-5.73-0.19
				C398.29,235.21,397.77,230.35,400.1,228.06z"/>
			<path class="st0" d="M423.27,259.12c-4.61,0.07-5.34-0.45-5.73-0.96c-1.08-1.38-0.56-3.8,0.48-5.25c0.69-0.97,1.54-1.4,3.15-2.2
				c3.08-1.51,3.92-0.93,5.54-2.1c2.38-1.72,2.42-4.32,3.25-4.2c0.41,0.06,0.79,0.75,1.43,6.11c0.74,6.18,0.43,6.83,0.1,7.26
				C430.53,259.01,428.11,259.05,423.27,259.12z"/>
			<path class="st0" d="M453.18,238.95c3.43-2.04,4.1-3.55,4.01-4.59c-0.13-1.62-2.1-1.9-4.3-4.68c-2.46-3.12-2.35-5.76-3.25-5.73
				c-1.51,0.05-2.38,7.66-2.48,8.6c-0.42,3.69-0.34,6.77-0.19,8.88"/>
			<path class="st0" d="M472.86,218.48c-1.37,0.45-2.76-0.51-4.73-1.86c-1.94-1.33-4.74-3.26-4.73-5.8c0.01-1.78,1.38-1.81,2.44-4.8
				c1.08-3.05,0.26-4.76,1.43-5.45c1.12-0.66,2.98,0.25,4.01,1.15c1.03,0.9,1.1,1.69,2.58,5.37c1.31,3.26,1.35,2.88,1.5,3.65
				C475.95,213.64,475.11,217.74,472.86,218.48z"/>
			<path class="st0" d="M479.31,203.15c-1.33-1.32-0.95-4.07,0.14-5.73c0.94-1.44,1.83-1.16,4.01-2.94c2.87-2.33,3.25-4.33,4.3-4.16
				c1.22,0.21,1.86,3.1,1.79,5.16c-0.03,0.76-0.25,4.51-3.37,6.73C484.39,203.5,480.94,204.77,479.31,203.15z"/>
			<path class="st0" d="M475.98,241.28c1.22,1.17,4.44,0.25,6.45-1.15c1.58-1.1,1.72-2,3.37-2.58c1.61-0.57,2.41-0.02,3.15-0.72
				c0.55-0.51,0.71-1.36,0.29-4.44c-0.55-4.05-0.83-6.08-1.79-6.38c-1.05-0.32-1.59,1.28-4.44,2.94c-3.3,1.91-4.72,1.01-6.09,2.72
				c-0.81,1.02-0.95,2.57-1.22,5.66C475.5,239.59,475.41,240.73,475.98,241.28z"/>
			<path class="st0" d="M507.18,234.83c-0.54-0.41-0.79-1.04-1.29-2.29c-0.62-1.56-1.09-2.74-0.72-3.8
				c0.43-1.19,1.53-1.16,3.08-2.29c3.19-2.34,2.97-5.79,4.44-5.8c1.3-0.01,2.29,2.67,2.65,3.65c0.34,0.92,1.03,2.88,0.43,5.3
				c-0.18,0.71-0.75,3.04-2.94,4.51C511.34,235.13,508.71,235.99,507.18,234.83z"/>
			<path class="st0" d="M541.98,223.31c0.58-2.51,4.29-4.25,6.5-3.34c2.15,0.88,1.29,3.61,4.11,6.69c2.68,2.92,5.76,2.97,5.64,4.01
				c-0.14,1.17-4.07,2.05-7.45,1.43c-3.7-0.68-5.9-3.01-6.59-3.82C543.02,226.93,541.54,225.2,541.98,223.31z"/>
			<path class="st0" d="M508.31,253.6c0-0.01,0.01-0.03,0.01-0.06c0.31-1.82,1.38-3.21,2-3.76c1.09-0.98,2.15-0.63,4.59-0.96
				c4.82-0.65,6.1-2.79,7.55-1.91c1.51,0.92,1.7,4.21,0.48,6.4c-1.41,2.53-4.41,3.03-6.3,3.34c-3.36,0.56-6.13-0.35-7.55-0.96"/>
			<path class="st0" d="M539.4,259.69c-1.69-1.43-2.15-3.79-1.82-5.54c0.24-1.24,0.75-1.51,3.63-5.06c2.63-3.25,2.99-3.99,3.73-3.92
				c1.56,0.16,2.36,3.71,2.87,5.92c0.88,3.87,1.36,6.02,0,7.74C546.06,261.04,541.89,261.79,539.4,259.69z"/>
			<path class="st0" d="M569.16,251.21c-2.45,0.32-5.09-0.86-6.4-2.96c-2.36-3.79,0.49-9.2,1.82-9.17c0.82,0.02,0.55,2.13,2.48,4.59
				c2.67,3.38,6.3,3.3,6.3,4.87C573.37,249.81,570.99,250.97,569.16,251.21z"/>
			<path class="st0" d="M571.95,265.42c-0.02-1.54,1.37-2.73,2.87-4.01c0.98-0.84,4.02-3.45,7.64-3.06
				c3.51,0.38,3.65,3.14,7.36,3.82c4,0.74,6.6-1.97,7.64-0.86c1.02,1.09-0.47,4.79-2.87,7.16c-4.87,4.83-12.59,3.29-13.66,3.06
				C577.44,270.78,571.98,268.46,571.95,265.42z"/>
			<path class="st0" d="M568.44,271.07c4.03,1.28,5.69,4.87,4.78,6.97c-0.76,1.76-3.47,2.83-5.73,2.01
				c-2.68-0.98-3.79-4.29-2.77-6.59c0.72-1.63,2.31-2.31,2.77-2.48"/>
			<path class="st0" d="M556.42,267.81L556.42,267.81c0.63-0.54,2.49-2.27,2.87-5.06c0.05-0.35,0.51-3.85-1.24-4.87
				c-1.75-1.02-5.18,0.72-6.3,3.44c-0.87,2.1-0.3,4.67,1.43,6.59"/>
			<path class="st0" d="M541.88,277.19c-0.7,1.91-0.01,4.1,1.24,5.45c2.23,2.4,6.42,2.36,6.97,1.24c0.4-0.79-1.31-1.57-3.15-5.06
				c-1.36-2.58-1.42-4.05-2.39-4.2C543.52,274.44,542.34,275.95,541.88,277.19z"/>
			<path class="st0" d="M578.37,291.51c-1.75-2.41-0.19-6.46,1.62-8.69c1.35-1.66,2.65-2.1,5.25-3.44
				c8.35-4.31,10.18-7.72,11.94-6.78c2.08,1.1,1.41,6.83,0,10.51c-0.49,1.27-2.99,7.33-9.27,9.36
				C587.23,292.7,580.71,294.73,578.37,291.51z"/>
			<path class="st0" d="M525.13,294.17c2.37-1.37,3.06-2.73,3.25-3.73c0.43-2.24-1.52-3.33-2.87-7.93c-0.78-2.67-0.66-4.12-1.24-4.2
				c-0.77-0.11-1.28,2.42-3.34,6.3c-2.5,4.72-4.36,5.89-3.82,7.36c0.31,0.85,1.53,2.09,6.97,2.2"/>
			<path class="st0" d="M532.81,289.13c2.62-1.43,7.03-1.96,8.98,0.57c1.01,1.32,1.36,3.47,0.48,4.97
				c-0.64,1.08-1.62,1.34-7.55,2.58c-5.38,1.13-5.97,1.22-6.39,0.76C527,296.57,528.88,291.28,532.81,289.13z"/>
			<path class="st0" d="M560.03,298.68c-1.34,0.55-3.81-0.99-4.49-3.15c-0.66-2.11,0.62-3.96,0.86-4.3
				c1.12-1.61,3.36-2.99,5.54-2.39c0.89,0.25,2.39,0.99,2.58,2.2c0.2,1.3-1.36,1.76-2.87,4.59
				C560.62,297.56,560.82,298.36,560.03,298.68z"/>
			<path class="st0" d="M576.75,298.49c-1.26,1.66-1.01,3.6-0.86,4.78c0.1,0.76,0.52,3.98,3.15,5.73c1.38,0.92,2.77,0.96,5.54,1.05
				c2.92,0.09,6.54-0.25,6.59-0.96c0.05-0.66-3.09-0.44-4.68-2.67c-1.31-1.85-0.04-3.21-1.24-5.83c-0.81-1.76-2.75-4.11-5.16-4.01
				C578.18,296.66,576.94,298.24,576.75,298.49z"/>
			<path class="st0" d="M556.14,300.84c-0.12,0.04-1.86,0.61-2.39,2.2c-0.65,1.95,1.03,3.89,1.72,4.68
				c1.73,1.99,5.22,4.14,7.55,2.77c1.29-0.76,1.6-2.25,1.62-2.39c0.47-2.48-2.04-4.52-3.06-5.35
				C560.5,301.87,558.37,300.13,556.14,300.84z"/>
			<path class="st0" d="M534.99,298.86c-1.32,0.47-2.32,1.93-2.39,3.34c-0.07,1.33,0.69,2.32,2.48,4.2c4.4,4.64,6.61,6.96,8.22,6.4
				c1.75-0.61,2.08-3.55,2.1-3.73c0.33-3.32-2.47-5.77-4.39-7.45C539.12,299.98,537.01,298.14,534.99,298.86z"/>
			<path class="st0" d="M494.31,304.54c1.39-1.37,1.8-2.96,2.1-4.2c0.39-1.6,1.15-4.73-0.57-7.26c-0.23-0.34-1.54-2.27-3.06-2.1
				c-1.08,0.12-1.62,1.23-3.06,3.92c-3.39,6.35-3.88,6.8-3.53,7.93c0.61,2,3.08,3.63,5.25,3.34
				C492.84,305.98,493.79,305.05,494.31,304.54z"/>
			<path class="st0" d="M503.96,308.61c2.71-0.88,6.23,0.66,6.59,2.77c0.32,1.86-1.92,3.52-2.2,3.73c-2.57,1.91-7,2.07-8.12,0.1
				C499.19,313.36,500.98,309.58,503.96,308.61z"/>
			<path class="st0" d="M617.02,292.85c-1.55-2.18-1.63-5.82,0.07-7.67c1.05-1.14,2.25-1.01,4.23-1.5c6.98-1.75,8.9-7.63,11.82-6.73
				c2.15,0.66,2.72,4.32,2.87,5.3c0.66,4.26-1.51,8.9-5.23,11.32C626.43,296.4,619.58,296.45,617.02,292.85z"/>
			<path class="st0" d="M619.31,323.56c-0.44-1.91,1.41-4.58,3.58-5.16c2.24-0.6,3.23,1.46,6.52,1.58c3.79,0.14,5.84-2.47,6.52-1.79
				c0.88,0.88-1.31,6.42-5.87,8.24C625.81,328.12,619.96,326.4,619.31,323.56z"/>
			<path class="st0" d="M615.8,327.39c3.44-0.22,5.36,4.98,5.45,5.23c1.39,3.94-0.14,8.54-1.5,8.67c-0.95,0.09-1.04-2.07-3.58-4.08
				c-2.43-1.92-4.11-1.34-4.8-2.72C610.3,332.36,612.59,327.59,615.8,327.39z"/>
			<path class="st0" d="M609.49,328.15c0.65-1.29-0.1-1.93,0.14-4.66c0.35-3.86,2.11-5.34,1.36-6.3c-0.85-1.1-4.18-0.51-6.45,1.15
				c-4.08,2.99-5.45,10.02-3.01,12.04C603.49,331.99,608.23,330.67,609.49,328.15z"/>
			<path class="st0" d="M584.13,329.55c1.02,0.65,3.46-0.74,4.51-2.65c1.76-3.21-0.33-8.05-1.79-8.1c-1.44-0.05-2.6,4.56-2.94,6.38
				C583.6,326.86,583.21,328.97,584.13,329.55z"/>
			<path class="st0" d="M472.36,316.93c3.04-0.32,4.52-3.54,4.87-4.3c1.88-4.08,0.32-9.27-1.15-9.46c-0.95-0.12-1.09,1.93-3.63,4.39
				c-3.22,3.13-6.02,2.77-6.3,4.49C465.82,314.04,469.06,317.28,472.36,316.93z"/>
			<path class="st0" d="M458.04,329.87c1.18-2.45,0.55-4.8,0.29-5.73c-1.29-4.57-6.08-8.38-8.22-7.36c-1.77,0.85-1.43,4.9-1.24,7.16
				c0.08,0.91,0.85,9.23,4.3,9.74C455.11,333.98,457.17,331.68,458.04,329.87z"/>
			<path class="st0" d="M426.2,304.32c5.29,2.81,11.33,0.84,12.61,0.38c7.43-2.63,10.67-9.28,13.09-14.23
				c0.67-1.37,2.54-5.2,1.53-6.02c-1.18-0.96-4.37,3.74-10.22,4.87c-6.33,1.22-8.61-3.12-13.18-1.43
				c-5.34,1.97-8.85,10.34-6.4,14.33C424.27,303.28,425.2,303.79,426.2,304.32z"/>
			<path class="st0" d="M415.88,315.73L415.88,315.73c2.19-0.29,5.52-0.58,9.55-0.29c4.36,0.32,11.12,0.82,11.75,3.44
				c0.54,2.24-3.43,5.84-7.64,6.59c-5.56,1-9.74-3.31-10.13-3.73"/>
			<path class="st0" d="M315.48,374.72c-1.38-2.11-1.97-5.4-0.48-7.36c1.58-2.07,4.02-0.69,6.78-2.58c4.11-2.81,3.13-8.86,4.68-8.98
				c1.54-0.12,4.41,5.63,3.53,11.46c-0.69,4.62-3.95,10.8-8.6,10.89C319,378.21,316.71,376.62,315.48,374.72z"/>
			<path class="st0" d="M354.07,359.44c-3.72-1.59-5.4-5.77-5.54-8.88c-0.17-3.61,1.69-6.32,3.92-9.55
				c3.88-5.64,6.88-6.18,7.64-10.22c0.66-3.49-1.04-5.9-0.29-6.3c1.07-0.58,5.61,3.73,7.93,9.27c3.26,7.77,2.8,19.46-4.01,24.17
				C363.21,358.26,358.58,361.36,354.07,359.44z"/>
			<path class="st0" d="M386.74,349.35c-1.77-0.64-3.06-2.23-3.37-3.87c-0.38-2.01,0.97-2.77,1.86-5.73
				c1.36-4.49-0.37-7.26,0.72-7.81c1.29-0.65,4.98,2.57,6.45,6.66c1.23,3.41,1.36,8.7-1.5,10.46
				C389.11,350.16,386.9,349.4,386.74,349.35z"/>
			<path class="st0" d="M404.67,323.86c-2.37,0.07-5.46-1.57-6.02-3.87c-0.05-0.22-0.11-0.56,0-1.58c0.39-3.57,1.68-4.86,2.01-7.02
				c0.52-3.44-2.02-5.24-1.29-6.02c1.34-1.42,12.3,2.11,12.61,9.31C412.15,318.95,408.57,323.75,404.67,323.86z"/>
			<path class="st0" d="M428.38,348.62c-0.14-0.02-0.33-0.04-0.55-0.08c-0.21-0.04-3.63-0.65-3.96-1.86
				c-0.26-0.94,1.41-1.9,3.37-3.58c5-4.3,5.21-7.58,7.24-7.45c1.96,0.12,3.76,3.33,3.8,6.16c0.04,2.87-1.74,5.61-4.59,7.02"/>
			<path class="st0" d="M407.76,368.9c-0.57-1.96,1.14-4.77,2.87-4.97c1.44-0.17,1.83,1.62,4.11,2.39c3.23,1.09,5.92-1.34,6.59-0.48
				c0.64,0.83-1.05,4.1-3.92,5.45C413.84,372.97,408.55,371.62,407.76,368.9z"/>
			<path class="st0" d="M444.16,362.72c-0.26-0.33-1.85-2.41-1.15-4.3c0.9-2.42,4.48-1.59,8.6-4.01c5.31-3.12,5.93-8.34,7.74-7.93
				c1.65,0.38,2.32,4.98,1.62,8.6c-0.23,1.19-1.62,7.51-7.16,9.46C450.87,365.57,446.38,365.52,444.16,362.72z"/>
			<path class="st0" d="M431.83,376.9c-0.9,0.48-3.57,1.9-4.01,4.2c-0.34,1.8,0.98,3.4,3.63,6.59c2.23,2.69,3.81,4.59,4.87,4.2
				c1.33-0.49-0.1-3.84,1.91-8.02c1.43-2.96,3.19-3.46,2.87-4.97c-0.41-1.92-3.74-3.23-6.4-2.96
				C433.4,376.08,432.46,376.57,431.83,376.9z"/>
			<path class="st0" d="M455.91,380.16c-0.49,2.42,1.55,4.64,3.34,6.59c0.77,0.84,7.09,7.5,14.52,5.92c2.46-0.52,5.5-2.05,5.45-3.53
				c-0.07-1.74-4.29-1.41-7.55-4.87c-3.36-3.56-1.76-6.96-4.49-8.6C463.76,373.62,456.7,376.23,455.91,380.16z"/>
			<path class="st0" d="M490.68,354.56c-1.27,2.48,0.12,5.07,0.48,5.73c1.4,2.6,3.94,3.51,5.35,4.01c3.47,1.24,7.58,1.01,7.83,0
				c0.24-0.94-3.14-1.32-5.16-4.49c-2.28-3.58-0.4-6.9-2.29-8.02C495.27,350.83,491.94,352.1,490.68,354.56z"/>
			<path class="st0" d="M530.32,335.49c-0.38,0.1-3.14,0.87-4.68,3.44c-1.46,2.45-0.9,5,0.19,9.93c0.6,2.71,1.06,4.7,2.58,6.88
				c0.44,0.64,3.12,4.48,4.97,3.92c1.68-0.52,0.63-4.07,2.67-8.98c2.28-5.48,5.61-5.91,5.35-8.79
				C541.08,338.23,535.29,334.19,530.32,335.49z"/>
			<path class="st0" d="M483.42,321.8c2.02,0.05,2.28,2.45,4.97,3.53c3.65,1.48,7.07-1.35,7.64-0.48c0.65,0.99-2.77,6.19-7.74,6.69
				c-4.24,0.43-9.14-2.62-9.08-5.64C479.26,323.92,481.46,321.75,483.42,321.8z"/>
			<path class="st0" d="M481.8,344.25c0-0.01-0.01-0.02-0.01-0.04c-0.05-0.22-0.58-2.82,0.39-5.31c0.32-0.81,1.63-4.17,4.59-4.59
				c2.65-0.37,6.09,1.7,6.02,4.49c-0.06,2.18-2.25,4.37-5.25,4.49"/>
			<path class="st0" d="M508.93,340.75c-2.33-1.01-4.9-2.47-4.87-4.2c0.03-1.89,3.11-2.28,5.64-5.25
				c3.98-4.68,1.98-10.32,3.82-10.79c1.97-0.51,7.05,5.28,6.02,11.27c-0.95,5.56-6.61,8.08-7.16,8.31"/>
			<path class="st0" d="M531.47,333.78c-0.67-0.71-1.42-1.76-1.34-2.96c0.12-1.79,1.94-2.23,2.48-4.2c0.7-2.55-1.57-4.62-1.05-5.06
				c0.69-0.59,6.24,1.78,6.21,6.11C537.76,330.65,535.1,333.5,531.47,333.78z"/>
			<path class="st0" d="M564.14,328.21c-1.82,1.65-1.74,4.24-1.72,4.97c0.15,5.01,5.04,8.04,5.83,8.5
				c4.66,2.76,10.54,2.21,10.89,0.96c0.38-1.36-6-2.64-6.78-6.97c-0.53-2.93,2-4.44,1.05-6.4
				C572.26,326.87,566.87,325.73,564.14,328.21z"/>
			<path class="st0" d="M588.02,351.03c-0.36,3.18,3.11,5.85,5.06,7.36c0.77,0.59,6.4,4.79,13.76,3.44
				c3.96-0.73,8.17-3.01,7.93-4.49c-0.26-1.65-5.72-0.25-9.65-3.92c-3.39-3.16-1.97-6.65-4.78-8.22
				C596.53,343.08,588.53,346.51,588.02,351.03z"/>
			<path class="st0" d="M563.38,351.32c-3.11,0.09-4.94,2.9-5.35,3.53c-2.05,3.15-2.21,8.12,0.67,11.08
				c2.52,2.6,6.96,3.24,7.93,1.91c1.11-1.53-3.17-4.61-2.1-8.31c0.84-2.89,4.12-3.35,3.92-5.25
				C568.26,352.64,565.64,351.25,563.38,351.32z"/>
			<path class="st0" d="M432.78,32.7c1.15,0.46,1.71-0.64,5.74-2.02c3.27-1.12,3.99-0.76,5.11-1.77c1.37-1.23,1.55-2.88,1.96-5.97
				c0.29-2.22,0.76-5.6,1.43-9.93c-3.04,1.92-5.67,2.95-7.5,3.53c-2.58,0.83-3.91,0.88-5.49,2.2c-2.14,1.79-2.77,4.26-3.01,5.25
				C430.26,27.2,430.66,31.86,432.78,32.7z"/>
			<path class="st0" d="M428.28,51.98c0.73-1-0.19-1.82-0.49-6.07c-0.25-3.45,0.28-4.05-0.41-5.39c-0.84-1.63-2.39-2.23-5.28-3.41
				c-2.07-0.85-5.22-2.16-9.24-3.91c1.08,3.43,1.41,6.23,1.51,8.15c0.14,2.7-0.14,4.01,0.73,5.87c1.18,2.53,3.42,3.77,4.32,4.25
				C422.32,53.02,426.92,53.81,428.28,51.98z"/>
			<path class="st0" d="M518.11,44.69c0.73-1-0.19-1.82-0.49-6.07c-0.25-3.45,0.28-4.05-0.41-5.39c-0.84-1.63-2.39-2.23-5.28-3.41
				c-2.07-0.85-5.22-2.16-9.24-3.91c1.08,3.43,1.41,6.23,1.51,8.15c0.14,2.7-0.14,4.01,0.73,5.87c1.18,2.53,3.42,3.77,4.32,4.25
				C512.15,45.73,516.76,46.53,518.11,44.69z"/>
			<path class="st0" d="M522.69,97.5c1.15,0.45,1.71-0.65,5.74-2.03c3.27-1.12,3.99-0.77,5.11-1.78c1.36-1.23,1.54-2.88,1.95-5.97
				c0.29-2.22,0.75-5.6,1.41-9.94c-3.04,1.92-5.66,2.96-7.49,3.55c-2.57,0.83-3.91,0.89-5.49,2.21c-2.14,1.79-2.76,4.27-3,5.26
				C520.16,92,520.57,96.66,522.69,97.5z"/>
			<path class="st0" d="M624.9,96.28c0.4,1.17,1.6,0.88,5.27,3.06c2.98,1.76,3.17,2.54,4.66,2.74c1.82,0.24,3.19-0.69,5.81-2.39
				c1.88-1.22,4.75-3.06,8.49-5.36c-3.43-1.07-5.92-2.4-7.56-3.41c-2.3-1.42-3.21-2.4-5.24-2.75c-2.75-0.47-5.04,0.66-5.95,1.12
				C627.44,90.79,624.16,94.12,624.9,96.28z"/>
			<path class="st0" d="M327.65,64.94c1.1,0.57,1.76-0.47,5.92-1.44c3.37-0.79,4.05-0.37,5.26-1.25c1.48-1.08,1.83-2.71,2.54-5.75
				c0.51-2.18,1.31-5.5,2.41-9.74c-3.22,1.61-5.93,2.37-7.81,2.78c-2.64,0.57-3.98,0.49-5.68,1.64c-2.31,1.57-3.18,3.97-3.51,4.93
				C325.69,59.22,325.63,63.9,327.65,64.94z"/>
			<path class="st0" d="M268.77,168.09c2.04,1.21,4.57,0.13,6.69-0.76c1.47-0.63,4.52-1.92,6.59-5.06
				c3.75-5.69,1.02-12.39,0.76-12.99c-3.38,2.99-6.45,4.36-8.69,5.06c-2.45,0.77-3.82,0.7-5.35,2.1c-1.9,1.74-2.77,4.59-2.39,7.16
				C266.52,164.55,266.88,166.97,268.77,168.09z"/>
			<path class="st0" d="M258.54,155.86c2.31-3.83,2.34-6.89,2.2-8.41c-0.08-0.84-0.34-2.67-3.73-8.6c-1.72-3.02-3.31-5.45-4.49-7.16
				c0.42,5.1-0.78,8.31-2.01,10.32c-1.16,1.91-2.31,2.67-2.58,4.68c-0.51,3.78,2.79,6.82,2.96,6.97
				C254.03,156.46,257.96,155.95,258.54,155.86z"/>
			<path class="st0" d="M271.73,192.3c-0.21-0.57-0.98-2.5-2.96-3.44c-2.35-1.11-5.4-0.35-5.64,0.67c-0.17,0.77,1.36,1.22,2.77,3.25
				c1.04,1.5,1.45,3.04,1.62,4.11c0.14,0.08,1.7,0.91,3.06,0.19C271.98,196.34,272.65,194.24,271.73,192.3z"/>
			<path class="st0" d="M261.47,254.09c2.39-0.43,3.7-2.55,4.78-4.3c0.57-0.92,1.88-3.11,2.1-6.11c0.45-6.12-4.02-10.38-4.68-10.99
				c-0.33,1.69-1.06,4.29-2.96,6.78c-2.42,3.18-4.5,3.24-5.35,5.83c-0.97,2.96,0.39,7.09,3.15,8.41
				C259.85,254.34,261.16,254.14,261.47,254.09z"/>
			<path class="st0" d="M229.85,252.78c0.14,0.39,0.87,2.23,2.87,3.15c1.58,0.73,3.55,0.71,4.97-0.19c1.5-0.95,1.36-2.24,3.25-5.16
				c0.88-1.36,1.74-2.36,2.29-2.96c-3.15-0.6-5.76-0.6-7.55-0.48c-3.81,0.25-4.69,1.08-5.06,1.53
				C229.46,250.07,229.71,252.02,229.85,252.78z"/>
			<path class="st0" d="M228.67,235.51c2.39-0.43,3.7-2.55,4.78-4.3c0.57-0.92,1.88-3.11,2.1-6.11c0.45-6.12-4.02-10.38-4.68-10.99
				c-0.33,1.69-1.06,4.29-2.96,6.78c-2.42,3.18-4.5,3.24-5.35,5.83c-0.97,2.96,0.39,7.09,3.15,8.41
				C227.05,235.77,228.36,235.56,228.67,235.51z"/>
			<path class="st0" d="M532.43,103.8c0.58,1.39-1.01,3.7-2.96,4.59c-2.61,1.19-6.22-0.01-6.59-1.72c-0.28-1.31,1.38-2.73,2.39-3.34
				C527.79,101.8,531.72,102.11,532.43,103.8z"/>
		</g>
	</g>
</g>
</svg>
